<svg width="24" height="24" viewBox="0 0 24 24" fill="none" xmlns="http://www.w3.org/2000/svg">
<path d="M13.6035 8.91402V3.23628C13.6034 2.98194 13.4628 2.83253 13.3047 2.77534C13.1513 2.71994 12.9833 2.74817 12.8516 2.92476L5.85352 12.3046C5.73178 12.4678 5.72098 12.6697 5.80079 12.8418C5.87991 13.0121 6.01961 13.1015 6.17872 13.1015H8.47071C9.56796 13.1018 10.3965 14.0244 10.3965 15.0859V20.7636C10.3966 21.018 10.5372 21.1674 10.6953 21.2246C10.8487 21.28 11.0167 21.2517 11.1484 21.0751L18.1465 11.6953C18.2682 11.5321 18.279 11.3302 18.1992 11.1582C18.1201 10.9878 17.9804 10.8984 17.8213 10.8984H15.5293C14.4321 10.8981 13.6035 9.97552 13.6035 8.91402ZM15.1035 8.91402C15.1035 9.21553 15.3273 9.39811 15.5293 9.39839H17.8213C19.4858 9.39844 20.2816 11.3411 19.3486 12.5918L12.3516 21.9726C11.794 22.72 10.9104 22.8982 10.1846 22.6357C9.46368 22.3749 8.89666 21.6822 8.89649 20.7636V15.0859C8.89649 14.7844 8.67274 14.6018 8.47071 14.6015H6.17872C4.51419 14.6015 3.71842 12.6588 4.65137 11.4082L11.6484 2.0273C12.206 1.2799 13.0896 1.10169 13.8154 1.36421C14.5363 1.62501 15.1034 2.31773 15.1035 3.23628V8.91402Z" fill="#EAB308"/>
<path d="M13.6035 8.91402V3.23628C13.6034 2.98194 13.4628 2.83253 13.3047 2.77534C13.1513 2.71994 12.9833 2.74817 12.8516 2.92476L5.85352 12.3046C5.73178 12.4678 5.72098 12.6697 5.80079 12.8418C5.87991 13.0121 6.01961 13.1015 6.17872 13.1015H8.47071C9.56796 13.1018 10.3965 14.0244 10.3965 15.0859V20.7636C10.3966 21.018 10.5372 21.1674 10.6953 21.2246C10.8487 21.28 11.0167 21.2517 11.1484 21.0751L18.1465 11.6953C18.2682 11.5321 18.279 11.3302 18.1992 11.1582C18.1201 10.9878 17.9804 10.8984 17.8213 10.8984H15.5293C14.4321 10.8981 13.6035 9.97552 13.6035 8.91402Z" fill="#EAB308"/>
</svg>
