<svg width="24" height="24" viewBox="0 0 24 24" fill="none" xmlns="http://www.w3.org/2000/svg">
<path d="M3 6C3 3.79086 4.79086 2 7 2H17C19.2091 2 21 3.79086 21 6V18C21 20.2091 19.2091 22 17 22H7C4.79086 22 3 20.2091 3 18V6Z" fill="#22C55E"/>
<path d="M20.25 6C20.25 4.20507 18.7949 2.75 17 2.75H7C5.20507 2.75 3.75 4.20507 3.75 6V18C3.75 19.7949 5.20507 21.25 7 21.25H17C18.7949 21.25 20.25 19.7949 20.25 18V6ZM21.75 18C21.75 20.6234 19.6234 22.75 17 22.75H7C4.37665 22.75 2.25 20.6234 2.25 18V6C2.25 3.37665 4.37665 1.25 7 1.25H17C19.6234 1.25 21.75 3.37665 21.75 6V18Z" fill="#22C55E"/>
<path d="M12 16.25C12.4142 16.25 12.75 16.5858 12.75 17C12.75 17.4142 12.4142 17.75 12 17.75H8C7.58579 17.75 7.25 17.4142 7.25 17C7.25 16.5858 7.58579 16.25 8 16.25H12Z" fill="white"/>
<path d="M16 11.25C16.4142 11.25 16.75 11.5858 16.75 12C16.75 12.4142 16.4142 12.75 16 12.75H8C7.58579 12.75 7.25 12.4142 7.25 12C7.25 11.5858 7.58579 11.25 8 11.25H16Z" fill="white"/>
<path d="M16 6.25C16.4142 6.25 16.75 6.58579 16.75 7C16.75 7.41421 16.4142 7.75 16 7.75H8C7.58579 7.75 7.25 7.41421 7.25 7C7.25 6.58579 7.58579 6.25 8 6.25H16Z" fill="white"/>
</svg>
