<svg width="24" height="24" viewBox="0 0 24 24" fill="none" xmlns="http://www.w3.org/2000/svg">
<path fill-rule="evenodd" clip-rule="evenodd" d="M12 2.75C6.89137 2.75 2.75 6.89137 2.75 12C2.75 16.4784 5.9333 20.2149 10.161 21.0673C10.6761 21.1712 11.25 20.7422 11.25 20V16.4444C11.25 14.8029 12.5807 13.4722 14.2222 13.4722C15.8637 13.4722 17.1944 14.8029 17.1944 16.4444V17.7333C17.1944 18.2097 17.4416 18.5526 17.7139 18.7009C17.9582 18.8339 18.2467 18.8335 18.5261 18.5554C20.2094 16.8795 21.25 14.562 21.25 12C21.25 6.89137 17.1086 2.75 12 2.75ZM1.25 12C1.25 6.06294 6.06294 1.25 12 1.25C17.9371 1.25 22.75 6.06294 22.75 12C22.75 14.977 21.5389 17.6725 19.5844 19.6184C18.8116 20.3878 17.7947 20.4528 16.9966 20.0183C16.2266 19.5991 15.6944 18.7415 15.6944 17.7333V16.4444C15.6944 15.6314 15.0353 14.9722 14.2222 14.9722C13.4091 14.9722 12.75 15.6314 12.75 16.4444V20C12.75 21.4669 11.515 22.8705 9.86453 22.5378C4.95055 21.547 1.25 17.2065 1.25 12ZM7.25 7.5C7.25 6.25736 8.25736 5.25 9.5 5.25C10.7426 5.25 11.75 6.25736 11.75 7.5C11.75 8.74264 10.7426 9.75 9.5 9.75C8.25736 9.75 7.25 8.74264 7.25 7.5ZM9.5 6.75C9.08579 6.75 8.75 7.08579 8.75 7.5C8.75 7.91421 9.08579 8.25 9.5 8.25C9.91421 8.25 10.25 7.91421 10.25 7.5C10.25 7.08579 9.91421 6.75 9.5 6.75ZM14.75 10C14.75 8.75736 15.7574 7.75 17 7.75C18.2426 7.75 19.25 8.75736 19.25 10C19.25 11.2426 18.2426 12.25 17 12.25C15.7574 12.25 14.75 11.2426 14.75 10ZM17 9.25C16.5858 9.25 16.25 9.58579 16.25 10C16.25 10.4142 16.5858 10.75 17 10.75C17.4142 10.75 17.75 10.4142 17.75 10C17.75 9.58579 17.4142 9.25 17 9.25ZM5.75 15.5C5.75 14.2574 6.75736 13.25 8 13.25C9.24264 13.25 10.25 14.2574 10.25 15.5C10.25 16.7426 9.24264 17.75 8 17.75C6.75736 17.75 5.75 16.7426 5.75 15.5ZM8 14.75C7.58579 14.75 7.25 15.0858 7.25 15.5C7.25 15.9142 7.58579 16.25 8 16.25C8.41421 16.25 8.75 15.9142 8.75 15.5C8.75 15.0858 8.41421 14.75 8 14.75Z" fill="#030712"/>
<path fill-rule="evenodd" clip-rule="evenodd" d="M7.25 7.5C7.25 6.25736 8.25736 5.25 9.5 5.25C10.7426 5.25 11.75 6.25736 11.75 7.5C11.75 8.74264 10.7426 9.75 9.5 9.75C8.25736 9.75 7.25 8.74264 7.25 7.5ZM9.5 6.75C9.08579 6.75 8.75 7.08579 8.75 7.5C8.75 7.91421 9.08579 8.25 9.5 8.25C9.91421 8.25 10.25 7.91421 10.25 7.5C10.25 7.08579 9.91421 6.75 9.5 6.75ZM5.75 15.5C5.75 14.2574 6.75736 13.25 8 13.25C9.24264 13.25 10.25 14.2574 10.25 15.5C10.25 16.7426 9.24264 17.75 8 17.75C6.75736 17.75 5.75 16.7426 5.75 15.5ZM8 14.75C7.58579 14.75 7.25 15.0858 7.25 15.5C7.25 15.9142 7.58579 16.25 8 16.25C8.41421 16.25 8.75 15.9142 8.75 15.5C8.75 15.0858 8.41421 14.75 8 14.75Z" fill="#006FFF"/>
</svg>
