<svg width="24" height="24" viewBox="0 0 24 24" fill="none" xmlns="http://www.w3.org/2000/svg">
<path fill-rule="evenodd" clip-rule="evenodd" d="M5.38566 15.6959C4.19864 16.2895 3.75 16.9706 3.75 17.5C3.75 18.0294 4.19864 18.7105 5.38566 19.3041C6.52782 19.8751 8.15819 20.25 10 20.25C11.8418 20.25 13.4722 19.8751 14.6143 19.3041C15.8014 18.7105 16.25 18.0294 16.25 17.5C16.25 16.9706 15.8014 16.2895 14.6143 15.6959C13.4722 15.1249 11.8418 14.75 10 14.75C8.15819 14.75 6.52782 15.1249 5.38566 15.6959ZM4.71484 14.3543C6.10618 13.6586 7.97582 13.25 10 13.25C12.0242 13.25 13.8938 13.6586 15.2852 14.3543C16.6316 15.0275 17.75 16.0964 17.75 17.5C17.75 18.9036 16.6316 19.9725 15.2852 20.6457C13.8938 21.3414 12.0242 21.75 10 21.75C7.97582 21.75 6.10618 21.3414 4.71484 20.6457C3.36836 19.9725 2.25 18.9036 2.25 17.5C2.25 16.0964 3.36836 15.0275 4.71484 14.3543Z" fill="#030712"/>
<path fill-rule="evenodd" clip-rule="evenodd" d="M10 3.75C8.20507 3.75 6.75 5.20507 6.75 7C6.75 8.79493 8.20507 10.25 10 10.25C11.7949 10.25 13.25 8.79493 13.25 7C13.25 5.20507 11.7949 3.75 10 3.75ZM5.25 7C5.25 4.37665 7.37665 2.25 10 2.25C12.6234 2.25 14.75 4.37665 14.75 7C14.75 9.62335 12.6234 11.75 10 11.75C7.37665 11.75 5.25 9.62335 5.25 7Z" fill="#030712"/>
<path fill-rule="evenodd" clip-rule="evenodd" d="M15.0448 10.2496C14.7228 10.7485 14.3288 11.1965 13.8774 11.5791C14.2319 11.6901 14.609 11.75 15.0001 11.75C17.0712 11.75 18.7501 10.0711 18.7501 8C18.7501 6.04422 17.2529 4.43814 15.3421 4.26538C15.6083 4.78435 15.8011 5.34717 15.9068 5.94015C16.6979 6.28887 17.2501 7.07994 17.2501 8C17.2501 9.2277 16.2668 10.2257 15.0448 10.2496Z" fill="#006FFF"/>
<path fill-rule="evenodd" clip-rule="evenodd" d="M18.9997 17.5563C18.9896 18.1704 18.8148 18.7605 18.5009 19.3108C18.8693 19.2094 19.2144 19.092 19.5312 18.96C20.1284 18.7112 20.6606 18.3958 21.055 18.0073C21.452 17.6162 21.7501 17.1064 21.7501 16.4999C21.7501 15.8935 21.452 15.3836 21.055 14.9925C20.6606 14.604 20.1284 14.2887 19.5312 14.0399C18.5086 13.6138 17.1907 13.3394 15.7495 13.2683C16.7517 13.7774 17.5702 14.4169 18.1352 15.1442C18.4329 15.2274 18.7072 15.3215 18.9543 15.4245C19.443 15.6281 19.7894 15.8514 20.0023 16.0611C20.2125 16.2682 20.2501 16.416 20.2501 16.4999C20.2501 16.5838 20.2125 16.7317 20.0023 16.9388C19.7961 17.1419 19.4645 17.3578 18.9997 17.5563Z" fill="#006FFF"/>
</svg>