<svg width="24" height="24" viewBox="0 0 24 24" fill="none" xmlns="http://www.w3.org/2000/svg">
<path fill-rule="evenodd" clip-rule="evenodd" d="M10.0704 3.75C9.65243 3.75 9.26214 3.95888 9.0303 4.30662L7.62404 6.41603C7.48494 6.62467 7.25076 6.75 7 6.75H6C4.20507 6.75 2.75 8.20507 2.75 10V17C2.75 18.7949 4.20507 20.25 6 20.25H18C19.7949 20.25 21.25 18.7949 21.25 17V10C21.25 8.20507 19.7949 6.75 18 6.75H17C16.7492 6.75 16.5151 6.62467 16.376 6.41603L14.9697 4.30662C14.7379 3.95888 14.3476 3.75 13.9296 3.75H10.0704ZM7.78223 3.47457C8.29226 2.70953 9.1509 2.25 10.0704 2.25H13.9296C14.8491 2.25 15.7077 2.70953 16.2178 3.47457L17.4014 5.25H18C20.6234 5.25 22.75 7.37665 22.75 10V17C22.75 19.6234 20.6234 21.75 18 21.75H6C3.37665 21.75 1.25 19.6234 1.25 17V10C1.25 7.37665 3.37665 5.25 6 5.25H6.59861L7.78223 3.47457ZM12 11.25C10.7574 11.25 9.75 12.2574 9.75 13.5C9.75 14.7426 10.7574 15.75 12 15.75C13.2426 15.75 14.25 14.7426 14.25 13.5C14.25 12.2574 13.2426 11.25 12 11.25ZM8.25 13.5C8.25 11.4289 9.92893 9.75 12 9.75C14.0711 9.75 15.75 11.4289 15.75 13.5C15.75 15.5711 14.0711 17.25 12 17.25C9.92893 17.25 8.25 15.5711 8.25 13.5Z" fill="#030712"/>
<path d="M13 6C13 6.55228 12.5523 7 12 7C11.4477 7 11 6.55228 11 6C11 5.44772 11.4477 5 12 5C12.5523 5 13 5.44772 13 6Z" fill="#030712"/>
</svg>
