<svg width="24" height="24" viewBox="0 0 24 24" fill="none" xmlns="http://www.w3.org/2000/svg">
<path d="M13.6035 8.91408V3.23634C13.6034 2.982 13.4628 2.83259 13.3047 2.77541C13.1513 2.72 12.9833 2.74823 12.8516 2.92482L5.85352 12.3047C5.73178 12.4679 5.72098 12.6697 5.80079 12.8418C5.87991 13.0122 6.01961 13.1016 6.17872 13.1016H8.47071C9.56796 13.1018 10.3965 14.0245 10.3965 15.086V20.7637C10.3966 21.018 10.5372 21.1674 10.6953 21.2246C10.8487 21.28 11.0167 21.2518 11.1484 21.0752L18.1465 11.6953C18.2682 11.5321 18.279 11.3303 18.1992 11.1582C18.1201 10.9879 17.9804 10.8985 17.8213 10.8985H15.5293C14.4321 10.8982 13.6035 9.97558 13.6035 8.91408ZM15.1035 8.91408C15.1035 9.21559 15.3273 9.39817 15.5293 9.39845H17.8213C19.4858 9.3985 20.2816 11.3412 19.3486 12.5918L12.3516 21.9727C11.794 22.7201 10.9104 22.8983 10.1846 22.6358C9.46368 22.375 8.89666 21.6822 8.89649 20.7637V15.086C8.89649 14.7844 8.67274 14.6019 8.47071 14.6016H6.17872C4.51419 14.6015 3.71842 12.6588 4.65137 11.4082L11.6484 2.02736C12.206 1.27996 13.0896 1.10175 13.8154 1.36427C14.5363 1.62507 15.1034 2.31779 15.1035 3.23634V8.91408Z" fill="#030712"/>
</svg>
