<svg width="24" height="24" viewBox="0 0 24 24" fill="none" xmlns="http://www.w3.org/2000/svg">
<path d="M12.75 12C12.75 11.5858 12.4142 11.25 12 11.25C11.5858 11.25 11.25 11.5858 11.25 12C11.25 12.4142 11.5858 12.75 12 12.75C12.4142 12.75 12.75 12.4142 12.75 12ZM14.25 12C14.25 13.2426 13.2426 14.25 12 14.25C10.7574 14.25 9.75 13.2426 9.75 12C9.75 10.7574 10.7574 9.75 12 9.75C13.2426 9.75 14.25 10.7574 14.25 12Z" fill="#030712"/>
<path d="M14.0303 12.9697C13.7374 12.6768 13.2627 12.6768 12.9698 12.9697C12.6769 13.2626 12.6769 13.7374 12.9698 14.0303L14.4698 15.5303C14.7627 15.8232 15.2374 15.8232 15.5303 15.5303C15.8232 15.2374 15.8232 14.7626 15.5303 14.4697L14.0303 12.9697ZM12.7501 10.5V6C12.7501 5.58579 12.4143 5.25 12.0001 5.25C11.5858 5.25 11.2501 5.58579 11.2501 6V10.5C11.2501 10.9142 11.5858 11.25 12.0001 11.25C12.4143 11.25 12.7501 10.9142 12.7501 10.5Z" fill="#030712"/>
<path d="M21.25 12C21.25 6.89137 17.1086 2.75 12 2.75C6.89137 2.75 2.75 6.89137 2.75 12C2.75 12.4142 2.41421 12.75 2 12.75C1.58579 12.75 1.25 12.4142 1.25 12C1.25 6.06294 6.06294 1.25 12 1.25C17.9371 1.25 22.75 6.06294 22.75 12C22.75 17.9371 17.9371 22.75 12 22.75H2C1.58579 22.75 1.25 22.4142 1.25 22C1.25 21.5858 1.58579 21.25 2 21.25H12C17.1086 21.25 21.25 17.1086 21.25 12Z" fill="#030712"/>
<path d="M8 17.25C8.41421 17.25 8.75 17.5858 8.75 18C8.75 18.4142 8.41421 18.75 8 18.75H2C1.58579 18.75 1.25 18.4142 1.25 18C1.25 17.5858 1.58579 17.25 2 17.25H8Z" fill="#030712"/>
<path d="M6 14.25C6.41421 14.25 6.75 14.5858 6.75 15C6.75 15.4142 6.41421 15.75 6 15.75H2C1.58579 15.75 1.25 15.4142 1.25 15C1.25 14.5858 1.58579 14.25 2 14.25H6Z" fill="#030712"/>
</svg>
