<svg xmlns="http://www.w3.org/2000/svg" width="24" height="24" viewBox="0 0 24 24" fill="none">
  <path fill-rule="evenodd" clip-rule="evenodd" d="M4.17149 18.4213C3.80155 18.7129 3.75 18.9141 3.75 19C3.75 19.0859 3.80155 19.2871 4.17149 19.5787C4.53298 19.8636 5.10255 20.1529 5.87321 20.4098C7.4067 20.921 9.5729 21.25 12 21.25C14.4271 21.25 16.5933 20.921 18.1268 20.4098C18.8975 20.1529 19.467 19.8636 19.8285 19.5787C20.1985 19.2871 20.25 19.0859 20.25 19C20.25 18.9141 20.1985 18.7129 19.8285 18.4213C19.467 18.1364 18.8975 17.8471 18.1268 17.5902C16.5933 17.079 14.4271 16.75 12 16.75C9.5729 16.75 7.4067 17.079 5.87321 17.5902C5.10255 17.8471 4.53298 18.1364 4.17149 18.4213ZM5.39887 16.1672C7.12274 15.5925 9.45654 15.25 12 15.25C14.5435 15.25 16.8773 15.5925 18.6011 16.1672C19.4591 16.4532 20.2076 16.8103 20.757 17.2432C21.2979 17.6695 21.75 18.2575 21.75 19C21.75 19.7425 21.2979 20.3305 20.757 20.7568C20.2076 21.1897 19.4591 21.5468 18.6011 21.8328C16.8773 22.4075 14.5435 22.75 12 22.75C9.45654 22.75 7.12274 22.4075 5.39887 21.8328C4.54085 21.5468 3.79239 21.1897 3.24303 20.7568C2.70213 20.3305 2.25 19.7425 2.25 19C2.25 18.2575 2.70213 17.6695 3.24303 17.2432C3.79239 16.8103 4.54085 16.4532 5.39887 16.1672Z" fill="#030712"/>
  <path fill-rule="evenodd" clip-rule="evenodd" d="M11.25 4C11.25 2.48122 12.4812 1.25 14 1.25H19.382C20.6829 1.25 21.529 2.61905 20.9472 3.78262L19.8944 5.8882C19.8592 5.95858 19.8592 6.04142 19.8944 6.1118L20.9472 8.21738C21.529 9.38095 20.6829 10.75 19.382 10.75H12.75V19C12.75 19.4142 12.4142 19.75 12 19.75C11.5858 19.75 11.25 19.4142 11.25 19V4ZM12.75 9.25H19.382C19.5678 9.25 19.6887 9.05442 19.6056 8.8882L18.5528 6.78262C18.3064 6.28995 18.3064 5.71005 18.5528 5.21738L19.6056 3.1118C19.6887 2.94558 19.5678 2.75 19.382 2.75H14C13.3096 2.75 12.75 3.30964 12.75 4V9.25Z" fill="#030712"/>
</svg>