<svg width="24" height="24" viewBox="0 0 24 24" fill="none" xmlns="http://www.w3.org/2000/svg">
<path fill-rule="evenodd" clip-rule="evenodd" d="M6 3.75C4.20507 3.75 2.75 5.20507 2.75 7V17C2.75 18.7949 4.20507 20.25 6 20.25H18C19.7949 20.25 21.25 18.7949 21.25 17V10C21.25 8.20507 19.7949 6.75 18 6.75H15.3333C14.3056 6.75 13.3055 6.41665 12.4833 5.8L10.6167 4.4C10.0541 3.97808 9.36987 3.75 8.66667 3.75H6ZM1.25 7C1.25 4.37665 3.37665 2.25 6 2.25H8.66667C9.69443 2.25 10.6945 2.58334 11.5167 3.2L13.3833 4.6C13.9459 5.02192 14.6301 5.25 15.3333 5.25H18C20.6234 5.25 22.75 7.37665 22.75 10V17C22.75 19.6234 20.6234 21.75 18 21.75H6C3.37665 21.75 1.25 19.6234 1.25 17V7ZM9.34837 10.3483C9.64126 10.0554 10.1161 10.0554 10.409 10.3483L12 11.9393L13.591 10.3484C13.8839 10.0555 14.3588 10.0555 14.6517 10.3484C14.9446 10.6413 14.9446 11.1161 14.6517 11.409L13.0607 13L14.6517 14.591C14.9446 14.8839 14.9446 15.3587 14.6517 15.6516C14.3588 15.9445 13.8839 15.9445 13.591 15.6516L12 14.0607L10.409 15.6517C10.1161 15.9446 9.64126 15.9446 9.34837 15.6517C9.05547 15.3588 9.05547 14.8839 9.34837 14.591L10.9394 13L9.34837 11.409C9.05547 11.1161 9.05547 10.6412 9.34837 10.3483Z" fill="#030712"/>
</svg>
