<svg width="24" height="24" viewBox="0 0 24 24" fill="none" xmlns="http://www.w3.org/2000/svg">
<path fill-rule="evenodd" clip-rule="evenodd" d="M12 2.75C6.89137 2.75 2.75 6.89137 2.75 12C2.75 17.0825 6.84923 21.2077 11.9218 21.2497C12.336 21.2531 12.669 21.5917 12.6655 22.0059C12.6621 22.4201 12.3236 22.7531 11.9094 22.7496C6.01395 22.7009 1.25 17.9068 1.25 12C1.25 6.06294 6.06294 1.25 12 1.25C17.9068 1.25 22.7009 6.01395 22.7496 11.9094C22.7531 12.3236 22.4201 12.6621 22.0059 12.6655C21.5917 12.669 21.2531 12.336 21.2497 11.9218C21.2077 6.84923 17.0825 2.75 12 2.75ZM12 7.75C9.65279 7.75 7.75 9.65279 7.75 12C7.75 13.7835 8.84882 15.3122 10.4092 15.9425C10.7933 16.0976 10.9789 16.5347 10.8237 16.9188C10.6686 17.3029 10.2315 17.4884 9.84739 17.3333C7.7395 16.4818 6.25 14.4157 6.25 12C6.25 8.82436 8.82436 6.25 12 6.25C14.4157 6.25 16.4818 7.7395 17.3333 9.84739C17.4884 10.2315 17.3029 10.6686 16.9188 10.8237C16.5347 10.9789 16.0976 10.7933 15.9425 10.4092C15.3122 8.84882 13.7835 7.75 12 7.75ZM13.1864 12.7688C12.9283 12.6828 12.6828 12.9283 12.7688 13.1864L15.3814 21.0243C15.4818 21.3252 15.9075 21.3252 16.0078 21.0243L16.9725 18.13C17.1547 17.5835 17.5835 17.1547 18.13 16.9725L21.0243 16.0078C21.3252 15.9075 21.3252 15.4818 21.0243 15.3814L13.1864 12.7688ZM11.3458 13.6607C10.8689 12.23 12.23 10.8689 13.6607 11.3458L21.4986 13.9584C23.1671 14.5146 23.1671 16.8746 21.4986 17.4308L18.6043 18.3956C18.5058 18.4284 18.4284 18.5058 18.3956 18.6043L17.4308 21.4986C16.8746 23.1671 14.5146 23.1671 13.9584 21.4986L11.3458 13.6607Z" fill="#030712"/>
</svg>
