<svg xmlns="http://www.w3.org/2000/svg" width="20" height="20" viewBox="0 0 20 20" fill="none">
  <path d="M9.9999 13.75C11.0405 13.75 11.9256 13.3851 12.6553 12.6554C13.385 11.9257 13.7499 11.0406 13.7499 9.99999C13.7499 8.95941 13.385 8.07426 12.6553 7.34455C11.9256 6.61486 11.0405 6.25001 9.9999 6.25001C8.95931 6.25001 8.07417 6.61486 7.34446 7.34455C6.61477 8.07426 6.24992 8.95941 6.24992 9.99999C6.24992 11.0406 6.61477 11.9257 7.34446 12.6554C8.07417 13.3851 8.95931 13.75 9.9999 13.75ZM10.0013 17.9166C8.90635 17.9166 7.87715 17.7089 6.91371 17.2933C5.95025 16.8777 5.11218 16.3138 4.3995 15.6014C3.68681 14.8891 3.12259 14.0514 2.70686 13.0883C2.29112 12.1253 2.08325 11.0963 2.08325 10.0014C2.08325 8.90644 2.29103 7.87725 2.70659 6.9138C3.12214 5.95034 3.6861 5.11228 4.39846 4.3996C5.11084 3.6869 5.94854 3.12268 6.91156 2.70695C7.87458 2.29121 8.90356 2.08334 9.9985 2.08334C11.0934 2.08334 12.1226 2.29112 13.0861 2.70668C14.0495 3.12223 14.8876 3.68619 15.6003 4.39855C16.313 5.11093 16.8772 5.94863 17.2929 6.91166C17.7087 7.87467 17.9165 8.90365 17.9165 9.9986C17.9165 11.0935 17.7088 12.1227 17.2932 13.0862C16.8777 14.0496 16.3137 14.8877 15.6013 15.6004C14.889 16.3131 14.0513 16.8773 13.0882 17.293C12.1252 17.7088 11.0962 17.9166 10.0013 17.9166Z" fill="#030712"/>
</svg>