<svg width="24" height="24" viewBox="0 0 24 24" fill="none" xmlns="http://www.w3.org/2000/svg">
<path fill-rule="evenodd" clip-rule="evenodd" d="M14.25 6.00274C14.25 4.97401 13.0744 4.38544 12.2499 5.00357L7.9831 8.20219C7.50717 8.55898 6.92839 8.75183 6.33358 8.75183H4C3.30932 8.75183 2.75 9.31139 2.75 10.0009V13.9991C2.75 14.6886 3.30932 15.2482 4 15.2482H6.33358C6.92839 15.2482 7.50717 15.4411 7.9831 15.7978L12.2499 18.9965C13.0744 19.6146 14.25 19.026 14.25 17.9973V6.00274ZM11.3501 3.80337C13.1625 2.44469 15.75 3.73679 15.75 6.00274V17.9973C15.75 20.2632 13.1625 21.5554 11.3501 20.1967L7.08336 16.998C6.86703 16.8359 6.60395 16.7482 6.33358 16.7482H4C2.48154 16.7482 1.25 15.5177 1.25 13.9991V10.0009C1.25 8.48232 2.48154 7.25183 4 7.25183H6.33358C6.60395 7.25183 6.86703 7.16417 7.08336 7.002L11.3501 3.80337ZM17.265 6.95083C17.3474 6.54489 17.7433 6.28262 18.1492 6.36502C20.7741 6.89784 22.75 9.21733 22.75 12C22.75 14.7827 20.7741 17.1022 18.1492 17.635C17.7433 17.7174 17.3474 17.4551 17.265 17.0492C17.1826 16.6433 17.4449 16.2474 17.8508 16.165C19.7904 15.7713 21.25 14.0552 21.25 12C21.25 9.94477 19.7904 8.22875 17.8508 7.83504C17.4449 7.75264 17.1826 7.35676 17.265 6.95083ZM17.3508 9.89205C17.5582 9.53351 18.017 9.41099 18.3755 9.61839C19.1956 10.0927 19.75 10.9812 19.75 12C19.75 13.0189 19.1956 13.9073 18.3755 14.3817C18.017 14.5891 17.5582 14.4666 17.3508 14.108C17.1434 13.7495 17.2659 13.2907 17.6245 13.0833C18 12.866 18.25 12.4618 18.25 12C18.25 11.5383 18 11.1341 17.6245 10.9168C17.2659 10.7094 17.1434 10.2506 17.3508 9.89205Z" fill="#030712"/>
</svg>
