<svg width="110" height="120" viewBox="0 0 110 120" fill="none" xmlns="http://www.w3.org/2000/svg">
<g filter="url(#filter0_d_48_5251)">
<circle cx="72.4288" cy="31.6989" r="13.068" fill="#9CA3AF"/>
<g filter="url(#filter1_biii_48_5251)">
<path d="M61.0478 59.9806C70.8837 63.9603 82.3985 62.7626 91.4666 56.4273C94.0962 54.5903 94.0736 50.8593 91.8054 48.5911L55.2719 12.0576C53.0038 9.78941 49.2727 9.76685 47.4357 12.3964C41.1891 21.3377 39.9372 32.6576 43.7185 42.4015L19.0571 67.0629C15.6548 70.4651 15.6548 75.9812 19.0571 79.3835L24.1907 84.5171C27.5929 87.9193 33.109 87.9193 36.5113 84.5171L61.0478 59.9806Z" fill="#6B7280" fill-opacity="0.2"/>
</g>
<path fill-rule="evenodd" clip-rule="evenodd" d="M73.7679 49.2593C75.3492 50.8405 78.0169 50.8719 79.7272 49.1615C80.8613 48.0275 82.7 48.0275 83.8341 49.1615C84.9682 50.2956 84.9682 52.1343 83.8341 53.2684C79.9311 57.1714 73.5853 57.2904 69.6611 53.3662C68.527 52.2321 68.527 50.3934 69.6611 49.2593C70.7952 48.1252 72.6339 48.1252 73.7679 49.2593Z" fill="white"/>
</g>
<defs>
<filter id="filter0_d_48_5251" x="-8" y="0" width="128" height="128" filterUnits="userSpaceOnUse" color-interpolation-filters="sRGB">
<feFlood flood-opacity="0" result="BackgroundImageFix"/>
<feColorMatrix in="SourceAlpha" type="matrix" values="0 0 0 0 0 0 0 0 0 0 0 0 0 0 0 0 0 0 127 0" result="hardAlpha"/>
<feOffset dy="16"/>
<feGaussianBlur stdDeviation="8"/>
<feColorMatrix type="matrix" values="0 0 0 0 0 0 0 0 0 0 0 0 0 0 0 0 0 0 0.02 0"/>
<feBlend mode="normal" in2="BackgroundImageFix" result="effect1_dropShadow_48_5251"/>
<feBlend mode="normal" in="SourceGraphic" in2="effect1_dropShadow_48_5251" result="shape"/>
</filter>
<filter id="filter1_biii_48_5251" x="0.505371" y="-5.61157" width="108.969" height="108.68" filterUnits="userSpaceOnUse" color-interpolation-filters="sRGB">
<feFlood flood-opacity="0" result="BackgroundImageFix"/>
<feGaussianBlur in="BackgroundImageFix" stdDeviation="8"/>
<feComposite in2="SourceAlpha" operator="in" result="effect1_backgroundBlur_48_5251"/>
<feBlend mode="normal" in="SourceGraphic" in2="effect1_backgroundBlur_48_5251" result="shape"/>
<feColorMatrix in="SourceAlpha" type="matrix" values="0 0 0 0 0 0 0 0 0 0 0 0 0 0 0 0 0 0 127 0" result="hardAlpha"/>
<feOffset dy="4.356"/>
<feGaussianBlur stdDeviation="2.178"/>
<feComposite in2="hardAlpha" operator="arithmetic" k2="-1" k3="1"/>
<feColorMatrix type="matrix" values="0 0 0 0 1 0 0 0 0 1 0 0 0 0 1 0 0 0 0.25 0"/>
<feBlend mode="normal" in2="shape" result="effect2_innerShadow_48_5251"/>
<feColorMatrix in="SourceAlpha" type="matrix" values="0 0 0 0 0 0 0 0 0 0 0 0 0 0 0 0 0 0 127 0" result="hardAlpha"/>
<feOffset dy="5.808"/>
<feGaussianBlur stdDeviation="2.904"/>
<feComposite in2="hardAlpha" operator="arithmetic" k2="-1" k3="1"/>
<feColorMatrix type="matrix" values="0 0 0 0 1 0 0 0 0 1 0 0 0 0 1 0 0 0 0.25 0"/>
<feBlend mode="normal" in2="effect2_innerShadow_48_5251" result="effect3_innerShadow_48_5251"/>
<feColorMatrix in="SourceAlpha" type="matrix" values="0 0 0 0 0 0 0 0 0 0 0 0 0 0 0 0 0 0 127 0" result="hardAlpha"/>
<feOffset dy="1.452"/>
<feGaussianBlur stdDeviation="0.726"/>
<feComposite in2="hardAlpha" operator="arithmetic" k2="-1" k3="1"/>
<feColorMatrix type="matrix" values="0 0 0 0 1 0 0 0 0 1 0 0 0 0 1 0 0 0 0.25 0"/>
<feBlend mode="normal" in2="effect3_innerShadow_48_5251" result="effect4_innerShadow_48_5251"/>
</filter>
</defs>
</svg>
