<svg width="102" height="121" viewBox="0 0 102 121" fill="none" xmlns="http://www.w3.org/2000/svg">
<g filter="url(#filter0_d_48_5266)">
<path fill-rule="evenodd" clip-rule="evenodd" d="M46.6435 7.34399H55.3555C63.3747 7.34399 69.8755 13.8448 69.8755 21.864V50.904C69.8755 58.9232 63.3747 65.424 55.3555 65.424H46.6435C38.6244 65.424 32.1235 58.9232 32.1235 50.904V21.864C32.1235 13.8448 38.6244 7.34399 46.6435 7.34399ZM46.6435 18.96C45.0397 18.96 43.7395 20.2602 43.7395 21.864V50.904C43.7395 52.5078 45.0397 53.808 46.6435 53.808H55.3555C56.9594 53.808 58.2595 52.5078 58.2595 50.904V21.864C58.2595 20.2602 56.9594 18.96 55.3555 18.96H46.6435Z" fill="#9CA3AF"/>
<g filter="url(#filter1_biii_48_5266)">
<path d="M16.1523 42.1919C16.1523 35.7766 21.353 30.5759 27.7683 30.5759H74.2323C80.6477 30.5759 85.8483 35.7766 85.8483 42.1919V53.8079C85.8483 73.0539 70.2464 88.6559 51.0003 88.6559C31.7543 88.6559 16.1523 73.0539 16.1523 53.8079V42.1919Z" fill="#6B7280" fill-opacity="0.2"/>
</g>
<path d="M50.9996 48C49.3958 48 48.0956 49.3002 48.0956 50.904V59.616H45.1916C43.5878 59.616 42.2876 60.9162 42.2876 62.52C42.2876 64.1238 43.5878 65.424 45.1916 65.424H56.8076C58.4114 65.424 59.7116 64.1238 59.7116 62.52C59.7116 60.9162 58.4114 59.616 56.8076 59.616H53.9036V50.904C53.9036 49.3002 52.6034 48 50.9996 48Z" fill="white"/>
</g>
<defs>
<filter id="filter0_d_48_5266" x="-13" y="0" width="128" height="128" filterUnits="userSpaceOnUse" color-interpolation-filters="sRGB">
<feFlood flood-opacity="0" result="BackgroundImageFix"/>
<feColorMatrix in="SourceAlpha" type="matrix" values="0 0 0 0 0 0 0 0 0 0 0 0 0 0 0 0 0 0 127 0" result="hardAlpha"/>
<feOffset dy="16"/>
<feGaussianBlur stdDeviation="8"/>
<feColorMatrix type="matrix" values="0 0 0 0 0 0 0 0 0 0 0 0 0 0 0 0 0 0 0.02 0"/>
<feBlend mode="normal" in2="BackgroundImageFix" result="effect1_dropShadow_48_5266"/>
<feBlend mode="normal" in="SourceGraphic" in2="effect1_dropShadow_48_5266" result="shape"/>
</filter>
<filter id="filter1_biii_48_5266" x="0.152344" y="14.5759" width="101.696" height="90.08" filterUnits="userSpaceOnUse" color-interpolation-filters="sRGB">
<feFlood flood-opacity="0" result="BackgroundImageFix"/>
<feGaussianBlur in="BackgroundImageFix" stdDeviation="8"/>
<feComposite in2="SourceAlpha" operator="in" result="effect1_backgroundBlur_48_5266"/>
<feBlend mode="normal" in="SourceGraphic" in2="effect1_backgroundBlur_48_5266" result="shape"/>
<feColorMatrix in="SourceAlpha" type="matrix" values="0 0 0 0 0 0 0 0 0 0 0 0 0 0 0 0 0 0 127 0" result="hardAlpha"/>
<feOffset dy="4.356"/>
<feGaussianBlur stdDeviation="2.178"/>
<feComposite in2="hardAlpha" operator="arithmetic" k2="-1" k3="1"/>
<feColorMatrix type="matrix" values="0 0 0 0 1 0 0 0 0 1 0 0 0 0 1 0 0 0 0.25 0"/>
<feBlend mode="normal" in2="shape" result="effect2_innerShadow_48_5266"/>
<feColorMatrix in="SourceAlpha" type="matrix" values="0 0 0 0 0 0 0 0 0 0 0 0 0 0 0 0 0 0 127 0" result="hardAlpha"/>
<feOffset dy="5.808"/>
<feGaussianBlur stdDeviation="2.904"/>
<feComposite in2="hardAlpha" operator="arithmetic" k2="-1" k3="1"/>
<feColorMatrix type="matrix" values="0 0 0 0 1 0 0 0 0 1 0 0 0 0 1 0 0 0 0.25 0"/>
<feBlend mode="normal" in2="effect2_innerShadow_48_5266" result="effect3_innerShadow_48_5266"/>
<feColorMatrix in="SourceAlpha" type="matrix" values="0 0 0 0 0 0 0 0 0 0 0 0 0 0 0 0 0 0 127 0" result="hardAlpha"/>
<feOffset dy="1.452"/>
<feGaussianBlur stdDeviation="0.726"/>
<feComposite in2="hardAlpha" operator="arithmetic" k2="-1" k3="1"/>
<feColorMatrix type="matrix" values="0 0 0 0 1 0 0 0 0 1 0 0 0 0 1 0 0 0 0.25 0"/>
<feBlend mode="normal" in2="effect3_innerShadow_48_5266" result="effect4_innerShadow_48_5266"/>
</filter>
</defs>
</svg>
