<svg width="115" height="119" viewBox="0 0 115 119" fill="none" xmlns="http://www.w3.org/2000/svg">
<g filter="url(#filter0_d_48_5275)">
<path fill-rule="evenodd" clip-rule="evenodd" d="M51.5586 31.194C51.051 31.5715 50.7517 32.1668 50.7517 32.7993C50.7517 33.6849 51.1706 34.5183 51.8813 35.0467L55.025 37.384C55.5566 37.7792 55.8232 38.438 55.7161 39.0917C55.7084 39.1387 55.7029 39.1859 55.6974 39.2331C55.6918 39.2811 55.6862 39.3291 55.6783 39.3768C55.5807 39.9666 54.9927 41.6458 53.914 43.6577C52.8425 45.6564 51.6096 46.8342 51.236 47.191C51.1962 47.2291 51.1661 47.2578 51.147 47.2772C50.5405 47.7708 49.7085 47.883 48.9929 47.5675L45.2574 45.9206C44.6179 45.6387 43.8749 45.6972 43.2523 46.0149C42.7308 46.281 42.4098 46.8063 42.3384 47.3874L41.7811 51.9231C41.7072 52.5249 41.2952 53.0312 40.721 53.226C40.5711 53.2768 40.4157 53.314 40.2615 53.3509C40.2477 53.3542 40.2339 53.3575 40.2201 53.3608C40.1921 53.3676 40.1621 53.3748 40.1301 53.3826C39.467 53.5431 37.94 53.9129 35.9286 53.9129C33.9171 53.9129 32.3902 53.5431 31.7271 53.3826C31.6947 53.3747 31.6644 53.3674 31.6362 53.3606C31.6224 53.3573 31.6085 53.354 31.5947 53.3507C31.4411 53.3139 31.2863 53.2769 31.1369 53.2262C30.5626 53.0315 30.1513 52.524 30.0795 51.9219L29.5355 47.3554C29.4566 46.6933 29.0299 46.1546 28.4591 45.8098C27.9489 45.5016 27.2964 45.4124 26.7509 45.6529L22.4358 47.5553C21.9832 47.7548 21.4569 47.6839 21.0732 47.3716C20.9964 47.3091 20.9149 47.2481 20.8328 47.1867C20.664 47.0603 20.4924 46.9318 20.3526 46.7835C19.8616 46.2625 18.9552 45.0748 17.9431 43.4566C16.5596 41.0437 16.1643 39.2339 16.1643 39.0328C16.0421 38.0384 16.4633 37.055 17.2673 36.4572L20.2985 34.2035C20.8062 33.8261 21.1054 33.2308 21.1054 32.5982C21.1054 31.9657 20.8062 31.3704 20.2985 30.993L16.8321 28.4158C16.3006 28.0205 16.0339 27.3617 16.141 26.708C16.1454 26.6813 16.1494 26.6544 16.1534 26.6276C16.1634 26.5596 16.1735 26.4916 16.1902 26.4248C16.3161 25.922 16.9004 24.288 17.9431 22.3431C19.3266 19.9301 20.5125 18.7236 20.7101 18.5226C21.3166 18.0289 22.1486 17.9168 22.8642 18.2322L26.7509 19.9458C27.2964 20.1863 27.9489 20.0971 28.4591 19.7888C29.0299 19.444 29.4566 18.9053 29.5355 18.2432L30.0795 13.6768C30.1513 13.0746 30.5626 12.5672 31.1369 12.3724C31.2862 12.3218 31.441 12.2847 31.5946 12.248C31.6085 12.2447 31.6223 12.2413 31.6362 12.238C31.6644 12.2312 31.6947 12.2239 31.7271 12.2161C32.3902 12.0555 33.9171 11.6858 35.9286 11.6858C37.94 11.6858 39.467 12.0555 40.1301 12.2161C40.1624 12.2239 40.1927 12.2312 40.2209 12.238C40.2348 12.2413 40.2487 12.2447 40.2625 12.248C40.4161 12.2847 40.5709 12.3218 40.7202 12.3724C41.2945 12.5672 41.7059 13.0746 41.7776 13.6768L42.3217 18.2432C42.4005 18.9053 42.8273 19.444 43.398 19.7888C43.9082 20.0971 44.5608 20.1863 45.1062 19.9458L48.9929 18.2322C49.7085 17.9168 50.5405 18.0289 51.147 18.5226C51.1666 18.5425 51.196 18.5704 51.2343 18.6068C51.582 18.937 52.6678 19.9685 53.914 22.142C55.2975 24.555 55.6928 26.3647 55.6928 26.5658C55.8147 27.4336 55.453 28.2986 54.7498 28.8214L51.5586 31.194ZM35.9945 37.923C38.5755 37.923 40.6678 35.8307 40.6678 33.2497C40.6678 30.6687 38.5755 28.5763 35.9945 28.5763C33.4135 28.5763 31.3211 30.6687 31.3211 33.2497C31.3211 35.8307 33.4135 37.923 35.9945 37.923Z" fill="#9CA3AF"/>
<g filter="url(#filter1_biii_48_5275)">
<path fill-rule="evenodd" clip-rule="evenodd" d="M91.34 45.3361C90.4242 46.017 89.8845 47.0909 89.8845 48.2321C89.8845 49.8297 90.6401 51.3332 91.9222 52.2864L97.5934 56.5028C98.5524 57.2158 99.0334 58.4043 98.8402 59.5836C98.8263 59.6683 98.8164 59.7535 98.8064 59.8387C98.7963 59.9252 98.7862 60.0118 98.7719 60.0979C98.596 61.1619 97.5351 64.1912 95.5892 67.8207C93.6562 71.4263 91.432 73.551 90.7581 74.1948C90.6862 74.2634 90.6319 74.3153 90.5976 74.3502C89.5034 75.2408 88.0024 75.4431 86.7115 74.874L79.9726 71.9029C78.8189 71.3943 77.4785 71.4999 76.3555 72.073C75.4147 72.5532 74.8355 73.5007 74.7067 74.5491L73.7014 82.7316C73.568 83.8172 72.8248 84.7306 71.7889 85.0819C71.5184 85.1736 71.238 85.2408 70.9597 85.3074C70.9349 85.3133 70.9101 85.3193 70.8853 85.3252C70.8348 85.3373 70.7807 85.3504 70.7228 85.3644C69.5266 85.6541 66.772 86.3211 63.1433 86.3211C59.5146 86.3211 56.76 85.6541 55.5638 85.3645C55.5054 85.3503 55.4507 85.3371 55.3998 85.3249C55.3749 85.3189 55.3499 85.3129 55.3249 85.3069C55.0478 85.2406 54.7685 85.1737 54.4991 85.0824C53.463 84.731 52.721 83.8156 52.5916 82.7293L51.6101 74.4914C51.4678 73.297 50.698 72.3252 49.6684 71.7031C48.748 71.1471 47.5707 70.9861 46.5868 71.42L38.8022 74.8519C37.9857 75.2119 37.0362 75.084 36.3441 74.5207C36.2055 74.4078 36.0586 74.2978 35.9105 74.187C35.6059 73.9589 35.2963 73.7272 35.0442 73.4596C34.1583 72.5197 32.5233 70.3771 30.6974 67.4579C28.2015 63.1049 27.4884 59.8401 27.4884 59.4774C27.268 57.6834 28.0278 55.9093 29.4783 54.8309L34.9466 50.7652C35.8624 50.0844 36.4022 49.0105 36.4022 47.8693C36.4022 46.7282 35.8624 45.6542 34.9466 44.9734L28.6932 40.3241C27.7342 39.6111 27.2532 38.4226 27.4464 37.2433C27.4543 37.195 27.4615 37.1466 27.4687 37.0983C27.4869 36.9755 27.505 36.8528 27.5352 36.7324C27.7622 35.8253 28.8163 32.8776 30.6974 29.3689C33.1932 25.0159 35.3325 22.8394 35.6891 22.4766C36.7832 21.5861 38.2842 21.3838 39.5751 21.9529L46.5868 25.0442C47.5707 25.478 48.748 25.3171 49.6684 24.761C50.698 24.1389 51.4678 23.1672 51.6101 21.9727L52.5916 13.7348C52.721 12.6485 53.463 11.7331 54.4991 11.3817C54.7685 11.2904 55.0477 11.2236 55.3248 11.1573C55.3498 11.1513 55.3748 11.1453 55.3998 11.1393C55.4507 11.1271 55.5054 11.1138 55.5638 11.0997C56.76 10.81 59.5146 10.1431 63.1433 10.1431C66.772 10.1431 69.5266 10.81 70.7228 11.0997C70.7812 11.1138 70.8359 11.1271 70.8868 11.1393C70.9118 11.1453 70.9368 11.1513 70.9618 11.1573C71.2389 11.2236 71.5181 11.2904 71.7875 11.3817C72.8236 11.7331 73.5656 12.6485 73.6951 13.7348L74.6765 21.9727C74.8188 23.1672 75.5886 24.1389 76.6182 24.761C77.5386 25.3171 78.7159 25.478 79.6999 25.0442L86.7115 21.9529C88.0024 21.3838 89.5034 21.5861 90.5976 22.4766C90.6329 22.5126 90.6859 22.5629 90.755 22.6286C91.3822 23.2244 93.3411 25.0852 95.5892 29.0062C98.0851 33.3592 98.7982 36.624 98.7982 36.9867C99.018 38.5522 98.3656 40.1127 97.097 41.0559L91.34 45.3361ZM63.263 57.4758C67.9192 57.4758 71.6937 53.7012 71.6937 49.045C71.6937 44.3888 67.9192 40.6143 63.263 40.6143C58.6068 40.6143 54.8322 44.3888 54.8322 49.045C54.8322 53.7012 58.6068 57.4758 63.263 57.4758Z" fill="#6B7280" fill-opacity="0.2"/>
</g>
</g>
<defs>
<filter id="filter0_d_48_5275" x="-7" y="0" width="128" height="128" filterUnits="userSpaceOnUse" color-interpolation-filters="sRGB">
<feFlood flood-opacity="0" result="BackgroundImageFix"/>
<feColorMatrix in="SourceAlpha" type="matrix" values="0 0 0 0 0 0 0 0 0 0 0 0 0 0 0 0 0 0 127 0" result="hardAlpha"/>
<feOffset dy="16"/>
<feGaussianBlur stdDeviation="8"/>
<feColorMatrix type="matrix" values="0 0 0 0 0 0 0 0 0 0 0 0 0 0 0 0 0 0 0.02 0"/>
<feBlend mode="normal" in2="BackgroundImageFix" result="effect1_dropShadow_48_5275"/>
<feBlend mode="normal" in="SourceGraphic" in2="effect1_dropShadow_48_5275" result="shape"/>
</filter>
<filter id="filter1_biii_48_5275" x="11.4043" y="-5.85693" width="103.478" height="108.178" filterUnits="userSpaceOnUse" color-interpolation-filters="sRGB">
<feFlood flood-opacity="0" result="BackgroundImageFix"/>
<feGaussianBlur in="BackgroundImageFix" stdDeviation="8"/>
<feComposite in2="SourceAlpha" operator="in" result="effect1_backgroundBlur_48_5275"/>
<feBlend mode="normal" in="SourceGraphic" in2="effect1_backgroundBlur_48_5275" result="shape"/>
<feColorMatrix in="SourceAlpha" type="matrix" values="0 0 0 0 0 0 0 0 0 0 0 0 0 0 0 0 0 0 127 0" result="hardAlpha"/>
<feOffset dx="4.356" dy="4.356"/>
<feGaussianBlur stdDeviation="2.178"/>
<feComposite in2="hardAlpha" operator="arithmetic" k2="-1" k3="1"/>
<feColorMatrix type="matrix" values="0 0 0 0 1 0 0 0 0 1 0 0 0 0 1 0 0 0 0.3 0"/>
<feBlend mode="normal" in2="shape" result="effect2_innerShadow_48_5275"/>
<feColorMatrix in="SourceAlpha" type="matrix" values="0 0 0 0 0 0 0 0 0 0 0 0 0 0 0 0 0 0 127 0" result="hardAlpha"/>
<feOffset dx="5.808" dy="5.808"/>
<feGaussianBlur stdDeviation="2.904"/>
<feComposite in2="hardAlpha" operator="arithmetic" k2="-1" k3="1"/>
<feColorMatrix type="matrix" values="0 0 0 0 1 0 0 0 0 1 0 0 0 0 1 0 0 0 0.25 0"/>
<feBlend mode="normal" in2="effect2_innerShadow_48_5275" result="effect3_innerShadow_48_5275"/>
<feColorMatrix in="SourceAlpha" type="matrix" values="0 0 0 0 0 0 0 0 0 0 0 0 0 0 0 0 0 0 127 0" result="hardAlpha"/>
<feOffset dx="1.452" dy="1.452"/>
<feGaussianBlur stdDeviation="0.726"/>
<feComposite in2="hardAlpha" operator="arithmetic" k2="-1" k3="1"/>
<feColorMatrix type="matrix" values="0 0 0 0 1 0 0 0 0 1 0 0 0 0 1 0 0 0 0.35 0"/>
<feBlend mode="normal" in2="effect3_innerShadow_48_5275" result="effect4_innerShadow_48_5275"/>
</filter>
</defs>
</svg>
