<svg width="36" height="37" viewBox="0 0 36 37" fill="none" xmlns="http://www.w3.org/2000/svg">
<g clip-path="url(#clip0_53_1820)">
<rect width="36" height="36" transform="translate(0 0.969971)" fill="#D1D5DB"/>
<path fill-rule="evenodd" clip-rule="evenodd" d="M18 17.97C20.2091 17.97 22 16.1791 22 13.97C22 11.7608 20.2091 9.96997 18 9.96997C15.7909 9.96997 14 11.7608 14 13.97C14 16.1791 15.7909 17.97 18 17.97ZM18 27.97C21.866 27.97 25 26.1791 25 23.97C25 21.7608 21.866 19.97 18 19.97C14.134 19.97 11 21.7608 11 23.97C11 26.1791 14.134 27.97 18 27.97Z" fill="#6B7280"/>
</g>
<defs>
<clipPath id="clip0_53_1820">
<rect width="36" height="36" fill="white" transform="translate(0 0.969971)"/>
</clipPath>
</defs>
</svg>
