<svg width="24" height="24" viewBox="0 0 24 24" fill="none" xmlns="http://www.w3.org/2000/svg">
<path fill-rule="evenodd" clip-rule="evenodd" d="M1.25 10C1.25 7.37665 3.37665 5.25 6 5.25H18C20.6234 5.25 22.75 7.37665 22.75 10V18C22.75 20.6234 20.6234 22.75 18 22.75H6C3.37665 22.75 1.25 20.6234 1.25 18V10ZM6 6.75C4.20507 6.75 2.75 8.20507 2.75 10V18C2.75 19.7949 4.20507 21.25 6 21.25H18C19.7949 21.25 21.25 19.7949 21.25 18V10C21.25 8.20507 19.7949 6.75 18 6.75H6Z" fill="#030712"/>
<path fill-rule="evenodd" clip-rule="evenodd" d="M11 2.75C9.75736 2.75 8.75 3.75736 8.75 5V6C8.75 6.41421 8.41421 6.75 8 6.75C7.58579 6.75 7.25 6.41421 7.25 6V5C7.25 2.92893 8.92893 1.25 11 1.25H13C15.0711 1.25 16.75 2.92893 16.75 5V6C16.75 6.41421 16.4142 6.75 16 6.75C15.5858 6.75 15.25 6.41421 15.25 6V5C15.25 3.75736 14.2426 2.75 13 2.75H11Z" fill="#030712"/>
<path fill-rule="evenodd" clip-rule="evenodd" d="M1.37287 10.5885C1.60012 10.2423 2.06501 10.1457 2.4113 10.3729C2.4113 10.3729 2.4113 10.3729 2.4113 10.3729L2.41438 10.3749L2.42605 10.3825L2.47473 10.414C2.5182 10.4419 2.58332 10.4834 2.66808 10.5366C2.83764 10.643 3.08556 10.796 3.39575 10.9799C4.0168 11.3482 4.88403 11.8387 5.86925 12.3284C7.87881 13.3273 10.2392 14.25 11.9999 14.25C13.7606 14.25 16.121 13.3273 18.1305 12.3284C19.1158 11.8387 19.983 11.3482 20.604 10.9799C20.9142 10.796 21.1621 10.643 21.3317 10.5366C21.4165 10.4834 21.4816 10.4419 21.525 10.414L21.5737 10.3825L21.5854 10.3749L21.588 10.3733C21.9343 10.1461 22.3997 10.2423 22.6269 10.5885C22.8542 10.9348 22.7577 11.3998 22.4114 11.627L21.9999 11C22.4114 11.627 22.4115 11.627 22.4114 11.627L22.4055 11.6309L22.3908 11.6404L22.3359 11.6759C22.2882 11.7066 22.2186 11.751 22.1291 11.8072C21.9501 11.9195 21.6913 12.0791 21.3691 12.2701C20.7253 12.6519 19.8248 13.1613 18.7982 13.6716C16.7841 14.6728 14.1444 15.75 11.9999 15.75C9.85538 15.75 7.21572 14.6728 5.2016 13.6716C4.17498 13.1613 3.27444 12.6519 2.63068 12.2701C2.30846 12.0791 2.04973 11.9195 1.87073 11.8072C1.78121 11.751 1.71157 11.7066 1.66385 11.6759L1.60893 11.6404L1.59427 11.6309L1.58901 11.6275C1.58888 11.6274 1.58838 11.627 1.99989 11L1.58901 11.6275C1.24272 11.4002 1.1456 10.9348 1.37287 10.5885Z" fill="#030712"/>
<path d="M14 15C14 16.1046 13.1046 17 12 17C10.8954 17 10 16.1046 10 15C10 13.8954 10.8954 13 12 13C13.1046 13 14 13.8954 14 15Z" fill="#030712"/>
</svg>
