<svg width="24" height="24" viewBox="0 0 24 24" fill="none" xmlns="http://www.w3.org/2000/svg">
<path fill-rule="evenodd" clip-rule="evenodd" d="M1.25 12C1.25 6.61522 5.61522 2.25 11 2.25H13C18.3848 2.25 22.75 6.61522 22.75 12C22.75 17.3848 18.3848 21.75 13 21.75H6C3.37665 21.75 1.25 19.6234 1.25 17V12ZM11 3.75C6.44365 3.75 2.75 7.44365 2.75 12V17C2.75 18.7949 4.20507 20.25 6 20.25H13C17.5564 20.25 21.25 16.5563 21.25 12C21.25 7.44365 17.5564 3.75 13 3.75H11ZM12 7.25C12.4142 7.25 12.75 7.58579 12.75 8V9C12.75 9.41421 12.4142 9.75 12 9.75C11.5858 9.75 11.25 9.41421 11.25 9V8C11.25 7.58579 11.5858 7.25 12 7.25ZM12 11.25C12.4142 11.25 12.75 11.5858 12.75 12V16C12.75 16.4142 12.4142 16.75 12 16.75C11.5858 16.75 11.25 16.4142 11.25 16V12C11.25 11.5858 11.5858 11.25 12 11.25Z" fill="#030712"/>
</svg>
