<svg width="24" height="24" viewBox="0 0 24 24" fill="none" xmlns="http://www.w3.org/2000/svg">
<path fill-rule="evenodd" clip-rule="evenodd" d="M5 2.75C4.30964 2.75 3.75 3.30964 3.75 4V8C3.75 8.69036 4.30964 9.25 5 9.25H11C11.6904 9.25 12.25 8.69036 12.25 8V5.5C12.25 4.80964 11.6904 4.25 11 4.25H9.66667C9.07165 4.25 8.49268 4.05701 8.01667 3.7L7.08333 3C6.86696 2.83772 6.6038 2.75 6.33333 2.75H5ZM2.25 4C2.25 2.48122 3.48122 1.25 5 1.25H6.33333C6.92835 1.25 7.50732 1.44299 7.98333 1.8L8.91667 2.5C9.13304 2.66228 9.3962 2.75 9.66667 2.75H11C12.5188 2.75 13.75 3.98122 13.75 5.5V8C13.75 9.51878 12.5188 10.75 11 10.75H5C3.48122 10.75 2.25 9.51878 2.25 8V4ZM15.25 6C15.25 5.58579 15.5858 5.25 16 5.25H17C18.5188 5.25 19.75 6.48122 19.75 8V12.5C19.75 12.9142 19.4142 13.25 19 13.25C18.5858 13.25 18.25 12.9142 18.25 12.5V8C18.25 7.30964 17.6904 6.75 17 6.75H16C15.5858 6.75 15.25 6.41421 15.25 6ZM5 12.25C5.41421 12.25 5.75 12.5858 5.75 13V16C5.75 16.6904 6.30964 17.25 7 17.25H8C8.41421 17.25 8.75 17.5858 8.75 18C8.75 18.4142 8.41421 18.75 8 18.75H7C5.48122 18.75 4.25 17.5188 4.25 16V13C4.25 12.5858 4.58579 12.25 5 12.25ZM13 14.75C12.3096 14.75 11.75 15.3096 11.75 16V20C11.75 20.6904 12.3096 21.25 13 21.25H19C19.6904 21.25 20.25 20.6904 20.25 20V17.5C20.25 16.8096 19.6904 16.25 19 16.25H17.6667C17.0716 16.25 16.4927 16.057 16.0167 15.7L15.0833 15C14.867 14.8377 14.6038 14.75 14.3333 14.75H13ZM10.25 16C10.25 14.4812 11.4812 13.25 13 13.25H14.3333C14.9284 13.25 15.5073 13.443 15.9833 13.8L16.9167 14.5C17.133 14.6623 17.3962 14.75 17.6667 14.75H19C20.5188 14.75 21.75 15.9812 21.75 17.5V20C21.75 21.5188 20.5188 22.75 19 22.75H13C11.4812 22.75 10.25 21.5188 10.25 20V16Z" fill="#030712"/>
</svg>
