<svg width="24" height="24" viewBox="0 0 24 24" fill="none" xmlns="http://www.w3.org/2000/svg">
<path fill-rule="evenodd" clip-rule="evenodd" d="M7.40014 3.29933C8.44792 1.90454 10.1184 1 12 1C15.1756 1 17.75 3.57436 17.75 6.75V12.75C17.75 13.1642 17.4142 13.5 17 13.5C16.5858 13.5 16.25 13.1642 16.25 12.75V6.75C16.25 4.40279 14.3472 2.5 12 2.5C10.6101 2.5 9.3761 3.16639 8.59944 4.20026C8.35066 4.53143 7.88051 4.59823 7.54933 4.34944C7.21815 4.10066 7.15136 3.6305 7.40014 3.29933ZM2.46967 2.21967C2.76256 1.92678 3.23744 1.92678 3.53033 2.21967L21.5303 20.2197C21.8232 20.5126 21.8232 20.9874 21.5303 21.2803C21.2374 21.5732 20.7626 21.5732 20.4697 21.2803L18.6391 19.4498C17.0353 21.3161 14.6559 22.5 12 22.5C7.16751 22.5 3.25 18.5825 3.25 13.75V11.75C3.25 11.3358 3.58579 11 4 11C4.41421 11 4.75 11.3358 4.75 11.75V13.75C4.75 17.7541 7.99594 21 12 21C14.2406 21 16.2439 19.9842 17.5748 18.3854L16.5084 17.3191C15.4559 18.6468 13.8279 19.5 12 19.5C8.82436 19.5 6.25 16.9256 6.25 13.75V7.06066L2.46967 3.28033C2.17678 2.98744 2.17678 2.51256 2.46967 2.21967ZM7.75 8.56066V13.75C7.75 16.0972 9.65279 18 12 18C13.4124 18 14.6648 17.3113 15.4382 16.2489L7.75 8.56066ZM20 11C20.4142 11 20.75 11.3358 20.75 11.75V13.75C20.75 14.4248 20.6735 15.0827 20.5283 15.7151C20.4356 16.1188 20.0332 16.371 19.6295 16.2783C19.2258 16.1856 18.9736 15.7832 19.0663 15.3795C19.1864 14.8564 19.25 14.3111 19.25 13.75V11.75C19.25 11.3358 19.5858 11 20 11Z" fill="#030712"/>
</svg>
