<svg width="24" height="24" viewBox="0 0 24 24" fill="none" xmlns="http://www.w3.org/2000/svg">
<path fill-rule="evenodd" clip-rule="evenodd" d="M1.25 8C1.25 5.37665 3.37665 3.25 6 3.25H18C20.6234 3.25 22.75 5.37665 22.75 8V16C22.75 18.6234 20.6234 20.75 18 20.75H6C3.37665 20.75 1.25 18.6234 1.25 16V8ZM6 4.75C4.20507 4.75 2.75 6.20507 2.75 8V16C2.75 17.7949 4.20507 19.25 6 19.25H18C19.7949 19.25 21.25 17.7949 21.25 16V8C21.25 6.20507 19.7949 4.75 18 4.75H6ZM4.25 7C4.25 6.58579 4.58579 6.25 5 6.25H7C7.41421 6.25 7.75 6.58579 7.75 7C7.75 7.41421 7.41421 7.75 7 7.75H5C4.58579 7.75 4.25 7.41421 4.25 7ZM16.25 7C16.25 6.58579 16.5858 6.25 17 6.25H19C19.4142 6.25 19.75 6.58579 19.75 7C19.75 7.41421 19.4142 7.75 19 7.75H17C16.5858 7.75 16.25 7.41421 16.25 7ZM12 10.75C11.3096 10.75 10.75 11.3096 10.75 12C10.75 12.6904 11.3096 13.25 12 13.25C12.6904 13.25 13.25 12.6904 13.25 12C13.25 11.3096 12.6904 10.75 12 10.75ZM9.25 12C9.25 10.4812 10.4812 9.25 12 9.25C13.5188 9.25 14.75 10.4812 14.75 12C14.75 13.5188 13.5188 14.75 12 14.75C10.4812 14.75 9.25 13.5188 9.25 12ZM4.25 17C4.25 16.5858 4.58579 16.25 5 16.25H7C7.41421 16.25 7.75 16.5858 7.75 17C7.75 17.4142 7.41421 17.75 7 17.75H5C4.58579 17.75 4.25 17.4142 4.25 17ZM16.25 17C16.25 16.5858 16.5858 16.25 17 16.25H19C19.4142 16.25 19.75 16.5858 19.75 17C19.75 17.4142 19.4142 17.75 19 17.75H17C16.5858 17.75 16.25 17.4142 16.25 17Z" fill="#030712"/>
</svg>
