<svg width="24" height="24" viewBox="0 0 24 24" fill="none" xmlns="http://www.w3.org/2000/svg">
<path fill-rule="evenodd" clip-rule="evenodd" d="M11.5 2.75C6.66751 2.75 2.75 6.66751 2.75 11.5C2.75 16.3325 6.66751 20.25 11.5 20.25C16.3325 20.25 20.25 16.3325 20.25 11.5C20.25 6.66751 16.3325 2.75 11.5 2.75ZM1.25 11.5C1.25 5.83908 5.83908 1.25 11.5 1.25C17.1609 1.25 21.75 5.83908 21.75 11.5C21.75 14.0605 20.8111 16.4017 19.2589 18.1982L22.5303 21.4697C22.8232 21.7626 22.8232 22.2374 22.5303 22.5303C22.2374 22.8232 21.7626 22.8232 21.4697 22.5303L18.1982 19.2589C16.4017 20.8111 14.0605 21.75 11.5 21.75C5.83908 21.75 1.25 17.1609 1.25 11.5ZM8.14124 8.14124C8.43413 7.84835 8.90901 7.84835 9.2019 8.14124L11.5 10.4393L13.7981 8.14124C14.091 7.84835 14.5659 7.84835 14.8588 8.14124C15.1516 8.43413 15.1516 8.90901 14.8588 9.2019L12.5607 11.5L14.8588 13.7981C15.1516 14.091 15.1516 14.5659 14.8588 14.8588C14.5659 15.1516 14.091 15.1516 13.7981 14.8588L11.5 12.5607L9.2019 14.8588C8.90901 15.1516 8.43413 15.1516 8.14124 14.8588C7.84835 14.5659 7.84835 14.091 8.14124 13.7981L10.4393 11.5L8.14124 9.2019C7.84835 8.90901 7.84835 8.43413 8.14124 8.14124Z" fill="#030712"/>
</svg>
