<svg width="24" height="24" viewBox="0 0 24 24" fill="none" xmlns="http://www.w3.org/2000/svg">
<path fill-rule="evenodd" clip-rule="evenodd" d="M13.25 6C13.25 4.48122 14.4812 3.25 16 3.25H18C19.5188 3.25 20.75 4.48122 20.75 6V8C20.75 9.51878 19.5188 10.75 18 10.75H16C14.4812 10.75 13.25 9.51878 13.25 8V6ZM16 4.75C15.3097 4.75 14.75 5.30964 14.75 6V8C14.75 8.69036 15.3097 9.25 16 9.25H18C18.6904 9.25 19.25 8.69036 19.25 8V6C19.25 5.30964 18.6904 4.75 18 4.75H16ZM6.25001 5.00997C6.18441 5.05931 6.12261 5.11597 6.06575 5.17994L4.56057 6.87327C4.28538 7.18286 3.81132 7.21075 3.50174 6.93556C3.19215 6.66037 3.16426 6.18631 3.43945 5.87673L4.94463 4.1834L4.94463 4.1834C6.03856 2.95273 7.96146 2.95273 9.05538 4.1834L10.5606 5.87673L9.43945 6.87327L7.93427 5.17994C7.8774 5.11597 7.81561 5.05931 7.75001 5.00997V18.99C7.81561 18.9407 7.8774 18.884 7.93427 18.8201L9.43945 17.1267C9.71464 16.8171 10.1887 16.7893 10.4983 17.0644C10.8079 17.3396 10.8358 17.8137 10.5606 18.1233L9.05538 19.8166C7.96146 21.0473 6.03856 21.0473 4.94463 19.8166L3.43945 18.1233C3.16426 17.8137 3.19215 17.3396 3.50174 17.0644C3.81132 16.7893 4.28538 16.8171 4.56056 17.1267L6.06575 18.8201C6.12261 18.884 6.18441 18.9407 6.25001 18.99V5.00997ZM13.25 16C13.25 14.4812 14.4812 13.25 16 13.25H18C19.5188 13.25 20.75 14.4812 20.75 16V18C20.75 19.5188 19.5188 20.75 18 20.75H16C14.4812 20.75 13.25 19.5188 13.25 18V16ZM16 14.75C15.3097 14.75 14.75 15.3096 14.75 16V18C14.75 18.6904 15.3097 19.25 16 19.25H18C18.6904 19.25 19.25 18.6904 19.25 18V16C19.25 15.3096 18.6904 14.75 18 14.75H16Z" fill="#030712"/>
</svg>
