<svg width="397" height="91" viewBox="0 0 397 91" fill="none" xmlns="http://www.w3.org/2000/svg">
<g clip-path="url(#clip0_69_779)">
<rect width="397.01" height="90.36" transform="translate(0 0.609863)" fill="#1F2937"/>
<path d="M107.16 52.1998V75.1998H99.9399V18.0598H107.16V24.0198C109.19 20.5798 114.1 17.0798 121.39 17.0798C132.75 17.0798 141.23 26.1298 141.23 38.1098C141.23 50.0898 132.75 59.1398 121.39 59.1398C114.1 59.1398 109.19 55.6298 107.16 52.1998ZM134.15 38.1098C134.15 29.7698 128.82 23.4598 120.76 23.4598C112.7 23.4598 107.02 29.7698 107.02 38.1098C107.02 46.4498 112.63 52.7598 120.76 52.7598C128.89 52.7598 134.15 46.4498 134.15 38.1098Z" fill="white"/>
<path d="M154.9 18.0598V24.2298C156.65 21.2198 161.49 17.0798 169.34 17.0798C171.79 17.0798 173.41 17.2898 174.81 17.7798V24.6498C173.27 23.9498 171.3 23.5298 168.85 23.5298C160.65 23.5298 154.9 30.1198 154.9 37.4098V58.1598H147.68V18.0598H154.9Z" fill="white"/>
<path d="M215.97 38.1098C215.97 50.1698 207.35 59.1398 195.5 59.1398C183.65 59.1398 174.96 50.1698 174.96 38.1098C174.96 26.0498 183.58 17.0798 195.5 17.0798C207.42 17.0798 215.97 26.0498 215.97 38.1098ZM182.04 38.1098C182.04 46.4498 187.51 52.7598 195.5 52.7598C203.49 52.7598 208.89 46.4498 208.89 38.1098C208.89 29.7698 203.42 23.4598 195.5 23.4598C187.58 23.4598 182.04 29.7698 182.04 38.1098Z" fill="white"/>
<path d="M240.93 59.1398C229.01 59.1398 220.32 50.1698 220.32 38.1098C220.32 26.0498 228.94 17.0798 240.79 17.0798C250.25 17.0798 257.69 23.1798 259.65 31.5198H252.29C250.68 26.7498 246.47 23.4598 240.79 23.4598C232.8 23.4598 227.4 29.7698 227.4 38.1098C227.4 46.4498 232.8 52.7598 240.79 52.7598C246.47 52.7598 250.82 49.3898 252.43 44.5598H259.79C257.62 53.2498 250.25 59.1398 240.93 59.1398Z" fill="white"/>
<path d="M304.74 38.1098C304.74 50.1698 296.12 59.1398 284.27 59.1398C272.42 59.1398 263.73 50.1698 263.73 38.1098C263.73 26.0498 272.35 17.0798 284.27 17.0798C296.19 17.0798 304.74 26.0498 304.74 38.1098ZM270.8 38.1098C270.8 46.4498 276.27 52.7598 284.26 52.7598C292.25 52.7598 297.65 46.4498 297.65 38.1098C297.65 29.7698 292.18 23.4598 284.26 23.4598C276.34 23.4598 270.8 29.7698 270.8 38.1098Z" fill="white"/>
<path d="M318.41 52.1998V75.1998H311.19V18.0598H318.41V24.0198C320.44 20.5798 325.35 17.0798 332.64 17.0798C344 17.0798 352.48 26.1298 352.48 38.1098C352.48 50.0898 344 59.1398 332.64 59.1398C325.35 59.1398 320.44 55.6298 318.41 52.1998ZM345.4 38.1098C345.4 29.7698 340.07 23.4598 332.01 23.4598C323.95 23.4598 318.27 29.7698 318.27 38.1098C318.27 46.4498 323.88 52.7598 332.01 52.7598C340.14 52.7598 345.4 46.4498 345.4 38.1098Z" fill="white"/>
<path d="M356.83 38.1098C356.83 26.0498 365.24 17.0798 376.95 17.0798C388.66 17.0798 397 26.0498 397 38.1098C397 39.0198 397 40.0698 396.86 41.0598H364.05C364.82 47.9298 369.8 53.0498 376.95 53.0498C382.42 53.0498 386.7 50.5298 388.17 47.2298H395.53C393.36 54.1698 386.13 59.1498 376.95 59.1498C365.24 59.1498 356.83 50.1798 356.83 38.1198V38.1098ZM376.95 23.1798C369.73 23.1798 364.82 28.2298 364.05 35.1698H389.92C389.08 28.1598 384.17 23.1798 376.95 23.1798Z" fill="white"/>
<path d="M78.7098 39.96C78.7098 41.12 78.6598 42.26 78.5598 43.39C77.7398 52.89 73.5498 61.43 67.1798 67.8C60.0598 74.92 50.2298 79.33 39.3598 79.33H23.2798V56.04H39.3598C43.7998 56.04 47.8198 54.25 50.7298 51.34C52.8698 49.2 54.4098 46.46 55.0698 43.39C55.3098 42.29 55.4398 41.14 55.4398 39.96H78.7098Z" fill="url(#paint0_linear_69_779)"/>
<path d="M67.18 12.1399C60.06 5.01986 50.23 0.609863 39.36 0.609863C34.67 0.609863 30.17 1.42986 26 2.93986C25.07 3.26986 24.17 3.63986 23.28 4.03986C9.56 10.1799 0 23.9599 0 39.9599V72.2299C2.4 68.3099 6.72 65.6899 11.64 65.6899C16.56 65.6899 20.88 68.3099 23.28 72.2299V39.9599C23.28 39.9599 23.28 39.9199 23.28 39.8999V39.9599C23.28 36.6499 24.28 33.5799 26 31.0199C28.88 26.7199 33.79 23.8799 39.36 23.8799C43.8 23.8799 47.82 25.6799 50.73 28.5899C53.64 31.5099 55.44 35.5299 55.44 39.9599C55.44 41.1399 55.31 42.2899 55.07 43.3899H78.56C78.66 42.2599 78.71 41.1199 78.71 39.9599C78.71 29.0999 74.31 19.2599 67.18 12.1399Z" fill="white"/>
<path d="M23.28 79.3299C23.28 85.7599 18.07 90.9699 11.64 90.9699C5.21 90.9699 0 85.7599 0 79.3299C0 72.8999 5.21 67.6899 11.64 67.6899C18.07 67.6899 23.28 72.8999 23.28 79.3299Z" fill="white"/>
</g>
<defs>
<linearGradient id="paint0_linear_69_779" x1="43.8398" y1="59.65" x2="26.8998" y2="59.65" gradientUnits="userSpaceOnUse">
<stop stop-color="white"/>
<stop offset="1" stop-color="white" stop-opacity="0"/>
</linearGradient>
<clipPath id="clip0_69_779">
<rect width="397.01" height="90.36" fill="white" transform="translate(0 0.609863)"/>
</clipPath>
</defs>
</svg>
