<svg width="96" height="96" viewBox="0 0 96 96" fill="none" xmlns="http://www.w3.org/2000/svg">
<path d="M87.2037 70.5061C87.2037 61.2841 79.7278 53.8081 70.5057 53.8081C61.2837 53.8081 53.8077 61.2841 53.8077 70.5061C53.8077 79.7282 61.2837 87.2041 70.5057 87.2041H85.2393C86.3242 87.2041 87.2037 86.3246 87.2037 85.2396V70.5061Z" fill="#9CA3AF"/>
<g filter="url(#filter0_biii_711_117)">
<path d="M8.79639 45.8221C8.79639 25.3732 25.3735 8.79614 45.8224 8.79614C66.2713 8.79614 82.8484 25.3732 82.8484 45.8221C82.8484 66.271 66.2713 82.8481 45.8224 82.8481H14.6044C11.3967 82.8481 8.79639 80.2478 8.79639 77.0401V45.8221Z" fill="#9CA3AF" fill-opacity="0.2"/>
</g>
<path d="M40.7399 46.5481C40.7399 44.1424 42.6901 42.1921 45.0959 42.1921C47.5016 42.1921 49.4519 44.1424 49.4519 46.5481C49.4519 48.9539 47.5016 50.9041 45.0959 50.9041C42.6901 50.9041 40.7399 48.9539 40.7399 46.5481Z" fill="white"/>
<path d="M27.6719 46.5481C27.6719 44.1424 29.6221 42.1921 32.0279 42.1921C34.4336 42.1921 36.3839 44.1424 36.3839 46.5481C36.3839 48.9539 34.4336 50.9041 32.0279 50.9041C29.6221 50.9041 27.6719 48.9539 27.6719 46.5481Z" fill="white"/>
<path d="M53.8079 46.5481C53.8079 44.1424 55.7581 42.1921 58.1639 42.1921C60.5696 42.1921 62.5199 44.1424 62.5199 46.5481C62.5199 48.9539 60.5696 50.9041 58.1639 50.9041C55.7581 50.9041 53.8079 48.9539 53.8079 46.5481Z" fill="white"/>
<defs>
<filter id="filter0_biii_711_117" x="-7.20361" y="-7.20386" width="106.052" height="106.052" filterUnits="userSpaceOnUse" color-interpolation-filters="sRGB">
<feFlood flood-opacity="0" result="BackgroundImageFix"/>
<feGaussianBlur in="BackgroundImageFix" stdDeviation="8"/>
<feComposite in2="SourceAlpha" operator="in" result="effect1_backgroundBlur_711_117"/>
<feBlend mode="normal" in="SourceGraphic" in2="effect1_backgroundBlur_711_117" result="shape"/>
<feColorMatrix in="SourceAlpha" type="matrix" values="0 0 0 0 0 0 0 0 0 0 0 0 0 0 0 0 0 0 127 0" result="hardAlpha"/>
<feOffset dy="-4.356"/>
<feGaussianBlur stdDeviation="2.178"/>
<feComposite in2="hardAlpha" operator="arithmetic" k2="-1" k3="1"/>
<feColorMatrix type="matrix" values="0 0 0 0 1 0 0 0 0 1 0 0 0 0 1 0 0 0 0.3 0"/>
<feBlend mode="normal" in2="shape" result="effect2_innerShadow_711_117"/>
<feColorMatrix in="SourceAlpha" type="matrix" values="0 0 0 0 0 0 0 0 0 0 0 0 0 0 0 0 0 0 127 0" result="hardAlpha"/>
<feOffset dy="5.808"/>
<feGaussianBlur stdDeviation="2.904"/>
<feComposite in2="hardAlpha" operator="arithmetic" k2="-1" k3="1"/>
<feColorMatrix type="matrix" values="0 0 0 0 1 0 0 0 0 1 0 0 0 0 1 0 0 0 0.25 0"/>
<feBlend mode="normal" in2="effect2_innerShadow_711_117" result="effect3_innerShadow_711_117"/>
<feColorMatrix in="SourceAlpha" type="matrix" values="0 0 0 0 0 0 0 0 0 0 0 0 0 0 0 0 0 0 127 0" result="hardAlpha"/>
<feOffset dy="-1.452"/>
<feGaussianBlur stdDeviation="0.726"/>
<feComposite in2="hardAlpha" operator="arithmetic" k2="-1" k3="1"/>
<feColorMatrix type="matrix" values="0 0 0 0 1 0 0 0 0 1 0 0 0 0 1 0 0 0 0.35 0"/>
<feBlend mode="normal" in2="effect3_innerShadow_711_117" result="effect4_innerShadow_711_117"/>
</filter>
</defs>
</svg>
