<svg width="96" height="96" viewBox="0 0 96 96" fill="none" xmlns="http://www.w3.org/2000/svg">
<g filter="url(#filter0_b_711_194)">
<path d="M7.34412 21.864C7.34412 15.4487 12.5448 10.248 18.9601 10.248H34.2018C35.6087 10.248 36.9677 10.7587 38.0264 11.6851L44.7155 17.538C46.833 19.3908 49.551 20.412 52.3647 20.412H77.0401C83.4555 20.412 88.6561 25.6127 88.6561 32.028V74.136C88.6561 80.5514 83.4555 85.752 77.0401 85.752H18.9601C12.5448 85.752 7.34412 80.5514 7.34412 74.136V21.864Z" fill="#2E89FF" fill-opacity="0.2"/>
</g>
<path d="M32.0277 42.192C32.0277 38.9844 34.628 36.384 37.8357 36.384H58.1637C61.3714 36.384 63.9717 38.9844 63.9717 42.192V74.136H32.0277V42.192Z" fill="#006FFF"/>
<g filter="url(#filter1_biii_711_194)">
<path d="M74.1416 26.1113C79.7557 21.0987 88.656 25.0837 88.656 32.6099V74.1361C88.656 80.5514 83.4553 85.7521 77.04 85.7521H18.7631C14.7624 85.7521 12.8777 80.8113 15.8619 78.1468L74.1416 26.1113Z" fill="#2E89FF" fill-opacity="0.2"/>
</g>
<path d="M61.0677 72.6841C61.0677 71.0803 62.3679 69.7801 63.9717 69.7801H75.5877C77.1916 69.7801 78.4917 71.0803 78.4917 72.6841C78.4917 74.2879 77.1916 75.5881 75.5877 75.5881H63.9717C62.3679 75.5881 61.0677 74.2879 61.0677 72.6841Z" fill="white"/>
<path d="M69.7797 63.9721C69.7797 62.3683 71.0799 61.0681 72.6837 61.0681H75.5877C77.1916 61.0681 78.4917 62.3683 78.4917 63.9721C78.4917 65.5759 77.1916 66.8761 75.5877 66.8761H72.6837C71.0799 66.8761 69.7797 65.5759 69.7797 63.9721Z" fill="white"/>
<defs>
<filter id="filter0_b_711_194" x="-8.65588" y="-5.75195" width="113.312" height="107.504" filterUnits="userSpaceOnUse" color-interpolation-filters="sRGB">
<feFlood flood-opacity="0" result="BackgroundImageFix"/>
<feGaussianBlur in="BackgroundImageFix" stdDeviation="8"/>
<feComposite in2="SourceAlpha" operator="in" result="effect1_backgroundBlur_711_194"/>
<feBlend mode="normal" in="SourceGraphic" in2="effect1_backgroundBlur_711_194" result="shape"/>
</filter>
<filter id="filter1_biii_711_194" x="-1.60168" y="7.88086" width="106.258" height="93.8713" filterUnits="userSpaceOnUse" color-interpolation-filters="sRGB">
<feFlood flood-opacity="0" result="BackgroundImageFix"/>
<feGaussianBlur in="BackgroundImageFix" stdDeviation="8"/>
<feComposite in2="SourceAlpha" operator="in" result="effect1_backgroundBlur_711_194"/>
<feBlend mode="normal" in="SourceGraphic" in2="effect1_backgroundBlur_711_194" result="shape"/>
<feColorMatrix in="SourceAlpha" type="matrix" values="0 0 0 0 0 0 0 0 0 0 0 0 0 0 0 0 0 0 127 0" result="hardAlpha"/>
<feOffset dy="4.356"/>
<feGaussianBlur stdDeviation="2.178"/>
<feComposite in2="hardAlpha" operator="arithmetic" k2="-1" k3="1"/>
<feColorMatrix type="matrix" values="0 0 0 0 1 0 0 0 0 1 0 0 0 0 1 0 0 0 0.3 0"/>
<feBlend mode="normal" in2="shape" result="effect2_innerShadow_711_194"/>
<feColorMatrix in="SourceAlpha" type="matrix" values="0 0 0 0 0 0 0 0 0 0 0 0 0 0 0 0 0 0 127 0" result="hardAlpha"/>
<feOffset dy="5.808"/>
<feGaussianBlur stdDeviation="2.904"/>
<feComposite in2="hardAlpha" operator="arithmetic" k2="-1" k3="1"/>
<feColorMatrix type="matrix" values="0 0 0 0 1 0 0 0 0 1 0 0 0 0 1 0 0 0 0.25 0"/>
<feBlend mode="normal" in2="effect2_innerShadow_711_194" result="effect3_innerShadow_711_194"/>
<feColorMatrix in="SourceAlpha" type="matrix" values="0 0 0 0 0 0 0 0 0 0 0 0 0 0 0 0 0 0 127 0" result="hardAlpha"/>
<feOffset dy="1.452"/>
<feGaussianBlur stdDeviation="0.726"/>
<feComposite in2="hardAlpha" operator="arithmetic" k2="-1" k3="1"/>
<feColorMatrix type="matrix" values="0 0 0 0 1 0 0 0 0 1 0 0 0 0 1 0 0 0 0.35 0"/>
<feBlend mode="normal" in2="effect3_innerShadow_711_194" result="effect4_innerShadow_711_194"/>
</filter>
</defs>
</svg>
