<svg width="102" height="115" viewBox="0 0 102 115" fill="none" xmlns="http://www.w3.org/2000/svg">
<g filter="url(#filter0_d_48_5260)">
<rect x="30.6719" y="56.7119" width="40.656" height="26.136" rx="5.808" fill="#9CA3AF"/>
<g filter="url(#filter1_biii_48_5260)">
<rect x="16.1523" y="13.152" width="69.696" height="69.696" rx="17.424" fill="#6B7280" fill-opacity="0.2"/>
</g>
<path d="M44.6446 35.6078C43.1216 36.9656 42.3359 38.7903 42.2876 41.0816H47.2011C47.2616 40.0511 47.6121 39.2328 48.2527 38.6266C48.8934 38.0083 49.7334 37.6991 50.773 37.6991C51.8004 37.6991 52.6344 37.978 53.2751 38.5357C53.9036 39.0933 54.2179 39.8086 54.2179 40.6815C54.2179 41.5423 54.0003 42.2516 53.5652 42.8092C53.1421 43.3669 52.3443 43.9974 51.1718 44.7005C49.9027 45.4522 49.0142 46.2705 48.5066 47.1556C47.9868 48.0891 47.7874 49.259 47.9082 50.6653L47.9445 51.7201H52.7493V50.7563C52.7493 49.8591 52.9608 49.1317 53.3838 48.574C53.8069 48.0163 54.6228 47.3859 55.8315 46.6827C58.4182 45.1552 59.7116 43.1002 59.7116 40.5179C59.7116 38.4326 58.9259 36.7414 57.3546 35.4441C55.759 34.1348 53.6739 33.4801 51.0993 33.4801C48.3676 33.4801 46.216 34.1893 44.6446 35.6078Z" fill="white"/>
<path d="M50.5393 61.0681C52.4381 61.0681 53.9775 59.5242 53.9775 57.6196C53.9775 55.715 52.4381 54.1711 50.5393 54.1711C48.6404 54.1711 47.1011 55.715 47.1011 57.6196C47.1011 59.5242 48.6404 61.0681 50.5393 61.0681Z" fill="white"/>
</g>
<defs>
<filter id="filter0_d_48_5260" x="-13" y="0" width="128" height="128" filterUnits="userSpaceOnUse" color-interpolation-filters="sRGB">
<feFlood flood-opacity="0" result="BackgroundImageFix"/>
<feColorMatrix in="SourceAlpha" type="matrix" values="0 0 0 0 0 0 0 0 0 0 0 0 0 0 0 0 0 0 127 0" result="hardAlpha"/>
<feOffset dy="16"/>
<feGaussianBlur stdDeviation="8"/>
<feColorMatrix type="matrix" values="0 0 0 0 0 0 0 0 0 0 0 0 0 0 0 0 0 0 0.02 0"/>
<feBlend mode="normal" in2="BackgroundImageFix" result="effect1_dropShadow_48_5260"/>
<feBlend mode="normal" in="SourceGraphic" in2="effect1_dropShadow_48_5260" result="shape"/>
</filter>
<filter id="filter1_biii_48_5260" x="0.152344" y="-2.84802" width="101.696" height="101.696" filterUnits="userSpaceOnUse" color-interpolation-filters="sRGB">
<feFlood flood-opacity="0" result="BackgroundImageFix"/>
<feGaussianBlur in="BackgroundImageFix" stdDeviation="8"/>
<feComposite in2="SourceAlpha" operator="in" result="effect1_backgroundBlur_48_5260"/>
<feBlend mode="normal" in="SourceGraphic" in2="effect1_backgroundBlur_48_5260" result="shape"/>
<feColorMatrix in="SourceAlpha" type="matrix" values="0 0 0 0 0 0 0 0 0 0 0 0 0 0 0 0 0 0 127 0" result="hardAlpha"/>
<feOffset dy="4.356"/>
<feGaussianBlur stdDeviation="2.178"/>
<feComposite in2="hardAlpha" operator="arithmetic" k2="-1" k3="1"/>
<feColorMatrix type="matrix" values="0 0 0 0 1 0 0 0 0 1 0 0 0 0 1 0 0 0 0.3 0"/>
<feBlend mode="normal" in2="shape" result="effect2_innerShadow_48_5260"/>
<feColorMatrix in="SourceAlpha" type="matrix" values="0 0 0 0 0 0 0 0 0 0 0 0 0 0 0 0 0 0 127 0" result="hardAlpha"/>
<feOffset dy="5.808"/>
<feGaussianBlur stdDeviation="2.904"/>
<feComposite in2="hardAlpha" operator="arithmetic" k2="-1" k3="1"/>
<feColorMatrix type="matrix" values="0 0 0 0 1 0 0 0 0 1 0 0 0 0 1 0 0 0 0.25 0"/>
<feBlend mode="normal" in2="effect2_innerShadow_48_5260" result="effect3_innerShadow_48_5260"/>
<feColorMatrix in="SourceAlpha" type="matrix" values="0 0 0 0 0 0 0 0 0 0 0 0 0 0 0 0 0 0 127 0" result="hardAlpha"/>
<feOffset dy="1.452"/>
<feGaussianBlur stdDeviation="0.726"/>
<feComposite in2="hardAlpha" operator="arithmetic" k2="-1" k3="1"/>
<feColorMatrix type="matrix" values="0 0 0 0 1 0 0 0 0 1 0 0 0 0 1 0 0 0 0.35 0"/>
<feBlend mode="normal" in2="effect3_innerShadow_48_5260" result="effect4_innerShadow_48_5260"/>
</filter>
</defs>
</svg>
