<svg width="96" height="96" viewBox="0 0 96 96" fill="none" xmlns="http://www.w3.org/2000/svg">
<rect x="27.6719" y="56.7119" width="40.656" height="26.136" rx="5.808" fill="#9CA3AF"/>
<g filter="url(#filter0_biii_711_104)">
<rect x="13.1523" y="13.1519" width="69.696" height="69.696" rx="17.424" fill="#9CA3AF" fill-opacity="0.2"/>
</g>
<path d="M41.6446 35.6077C40.1216 36.9655 39.3359 38.7901 39.2876 41.0815H44.2011C44.2616 40.051 44.6121 39.2326 45.2527 38.6265C45.8934 38.0082 46.7334 37.699 47.773 37.699C48.8004 37.699 49.6344 37.9778 50.2751 38.5355C50.9036 39.0932 51.2179 39.8085 51.2179 40.6814C51.2179 41.5422 51.0003 42.2514 50.5652 42.8091C50.1421 43.3668 49.3443 43.9972 48.1718 44.7004C46.9027 45.4521 46.0142 46.2704 45.5066 47.1554C44.9868 48.089 44.7874 49.2589 44.9082 50.6652L44.9445 51.72H49.7493V50.7562C49.7493 49.859 49.9608 49.1316 50.3838 48.5739C50.8069 48.0162 51.6228 47.3858 52.8315 46.6826C55.4182 45.155 56.7116 43.1001 56.7116 40.5177C56.7116 38.4325 55.9259 36.7412 54.3546 35.444C52.759 34.1347 50.6739 33.48 48.0993 33.48C45.3676 33.48 43.216 34.1892 41.6446 35.6077Z" fill="white"/>
<path d="M47.5393 61.068C49.4381 61.068 50.9775 59.524 50.9775 57.6195C50.9775 55.7149 49.4381 54.171 47.5393 54.171C45.6404 54.171 44.1011 55.7149 44.1011 57.6195C44.1011 59.524 45.6404 61.068 47.5393 61.068Z" fill="white"/>
<defs>
<filter id="filter0_biii_711_104" x="-2.84766" y="-2.84814" width="101.696" height="101.696" filterUnits="userSpaceOnUse" color-interpolation-filters="sRGB">
<feFlood flood-opacity="0" result="BackgroundImageFix"/>
<feGaussianBlur in="BackgroundImageFix" stdDeviation="8"/>
<feComposite in2="SourceAlpha" operator="in" result="effect1_backgroundBlur_711_104"/>
<feBlend mode="normal" in="SourceGraphic" in2="effect1_backgroundBlur_711_104" result="shape"/>
<feColorMatrix in="SourceAlpha" type="matrix" values="0 0 0 0 0 0 0 0 0 0 0 0 0 0 0 0 0 0 127 0" result="hardAlpha"/>
<feOffset dy="4.356"/>
<feGaussianBlur stdDeviation="2.178"/>
<feComposite in2="hardAlpha" operator="arithmetic" k2="-1" k3="1"/>
<feColorMatrix type="matrix" values="0 0 0 0 1 0 0 0 0 1 0 0 0 0 1 0 0 0 0.3 0"/>
<feBlend mode="normal" in2="shape" result="effect2_innerShadow_711_104"/>
<feColorMatrix in="SourceAlpha" type="matrix" values="0 0 0 0 0 0 0 0 0 0 0 0 0 0 0 0 0 0 127 0" result="hardAlpha"/>
<feOffset dy="5.808"/>
<feGaussianBlur stdDeviation="2.904"/>
<feComposite in2="hardAlpha" operator="arithmetic" k2="-1" k3="1"/>
<feColorMatrix type="matrix" values="0 0 0 0 1 0 0 0 0 1 0 0 0 0 1 0 0 0 0.25 0"/>
<feBlend mode="normal" in2="effect2_innerShadow_711_104" result="effect3_innerShadow_711_104"/>
<feColorMatrix in="SourceAlpha" type="matrix" values="0 0 0 0 0 0 0 0 0 0 0 0 0 0 0 0 0 0 127 0" result="hardAlpha"/>
<feOffset dy="1.452"/>
<feGaussianBlur stdDeviation="0.726"/>
<feComposite in2="hardAlpha" operator="arithmetic" k2="-1" k3="1"/>
<feColorMatrix type="matrix" values="0 0 0 0 1 0 0 0 0 1 0 0 0 0 1 0 0 0 0.35 0"/>
<feBlend mode="normal" in2="effect3_innerShadow_711_104" result="effect4_innerShadow_711_104"/>
</filter>
</defs>
</svg>
