<svg width="102" height="115" viewBox="0 0 102 115" fill="none" xmlns="http://www.w3.org/2000/svg">
<g filter="url(#filter0_d_48_5254)">
<rect x="30.6719" y="52.356" width="40.656" height="26.136" rx="5.808" fill="#9CA3AF"/>
<g filter="url(#filter1_biii_48_5254)">
<rect x="16.1523" y="13.152" width="69.696" height="69.696" rx="34.848" fill="#6B7280" fill-opacity="0.2"/>
</g>
<path d="M48.0961 47.9999C48.0961 46.3961 49.3963 45.0959 51.0001 45.0959C52.604 45.0959 53.9041 46.3961 53.9041 47.9999C53.9041 49.6038 52.604 50.9039 51.0001 50.9039C49.3963 50.9039 48.0961 49.6038 48.0961 47.9999Z" fill="white"/>
<path d="M37.9321 47.9999C37.9321 46.3961 39.2323 45.0959 40.8361 45.0959C42.44 45.0959 43.7401 46.3961 43.7401 47.9999C43.7401 49.6038 42.44 50.9039 40.8361 50.9039C39.2323 50.9039 37.9321 49.6038 37.9321 47.9999Z" fill="white"/>
<path d="M58.2601 47.9999C58.2601 46.3961 59.5603 45.0959 61.1641 45.0959C62.768 45.0959 64.0681 46.3961 64.0681 47.9999C64.0681 49.6038 62.768 50.9039 61.1641 50.9039C59.5603 50.9039 58.2601 49.6038 58.2601 47.9999Z" fill="white"/>
</g>
<defs>
<filter id="filter0_d_48_5254" x="-13" y="0" width="128" height="128" filterUnits="userSpaceOnUse" color-interpolation-filters="sRGB">
<feFlood flood-opacity="0" result="BackgroundImageFix"/>
<feColorMatrix in="SourceAlpha" type="matrix" values="0 0 0 0 0 0 0 0 0 0 0 0 0 0 0 0 0 0 127 0" result="hardAlpha"/>
<feOffset dy="16"/>
<feGaussianBlur stdDeviation="8"/>
<feColorMatrix type="matrix" values="0 0 0 0 0 0 0 0 0 0 0 0 0 0 0 0 0 0 0.02 0"/>
<feBlend mode="normal" in2="BackgroundImageFix" result="effect1_dropShadow_48_5254"/>
<feBlend mode="normal" in="SourceGraphic" in2="effect1_dropShadow_48_5254" result="shape"/>
</filter>
<filter id="filter1_biii_48_5254" x="0.152344" y="-2.84802" width="101.696" height="101.696" filterUnits="userSpaceOnUse" color-interpolation-filters="sRGB">
<feFlood flood-opacity="0" result="BackgroundImageFix"/>
<feGaussianBlur in="BackgroundImageFix" stdDeviation="8"/>
<feComposite in2="SourceAlpha" operator="in" result="effect1_backgroundBlur_48_5254"/>
<feBlend mode="normal" in="SourceGraphic" in2="effect1_backgroundBlur_48_5254" result="shape"/>
<feColorMatrix in="SourceAlpha" type="matrix" values="0 0 0 0 0 0 0 0 0 0 0 0 0 0 0 0 0 0 127 0" result="hardAlpha"/>
<feOffset dy="-4.356"/>
<feGaussianBlur stdDeviation="2.178"/>
<feComposite in2="hardAlpha" operator="arithmetic" k2="-1" k3="1"/>
<feColorMatrix type="matrix" values="0 0 0 0 1 0 0 0 0 1 0 0 0 0 1 0 0 0 0.3 0"/>
<feBlend mode="normal" in2="shape" result="effect2_innerShadow_48_5254"/>
<feColorMatrix in="SourceAlpha" type="matrix" values="0 0 0 0 0 0 0 0 0 0 0 0 0 0 0 0 0 0 127 0" result="hardAlpha"/>
<feOffset dy="5.808"/>
<feGaussianBlur stdDeviation="2.904"/>
<feComposite in2="hardAlpha" operator="arithmetic" k2="-1" k3="1"/>
<feColorMatrix type="matrix" values="0 0 0 0 1 0 0 0 0 1 0 0 0 0 1 0 0 0 0.25 0"/>
<feBlend mode="normal" in2="effect2_innerShadow_48_5254" result="effect3_innerShadow_48_5254"/>
<feColorMatrix in="SourceAlpha" type="matrix" values="0 0 0 0 0 0 0 0 0 0 0 0 0 0 0 0 0 0 127 0" result="hardAlpha"/>
<feOffset dy="-1.452"/>
<feGaussianBlur stdDeviation="0.726"/>
<feComposite in2="hardAlpha" operator="arithmetic" k2="-1" k3="1"/>
<feColorMatrix type="matrix" values="0 0 0 0 1 0 0 0 0 1 0 0 0 0 1 0 0 0 0.35 0"/>
<feBlend mode="normal" in2="effect3_innerShadow_48_5254" result="effect4_innerShadow_48_5254"/>
</filter>
</defs>
</svg>
