<svg width="102" height="115" viewBox="0 0 102 115" fill="none" xmlns="http://www.w3.org/2000/svg">
<g filter="url(#filter0_d_48_5261)">
<rect x="30.6719" y="56.7119" width="40.656" height="26.136" rx="5.808" fill="#9CA3AF"/>
<g filter="url(#filter1_biii_48_5261)">
<rect x="16.1523" y="13.152" width="69.696" height="69.696" rx="17.424" fill="#6B7280" fill-opacity="0.2"/>
</g>
<path d="M41.7593 38.7596C40.6252 39.8937 40.6252 41.7324 41.7593 42.8665L46.8929 48.0001L41.7593 53.1337C40.6252 54.2678 40.6252 56.1065 41.7593 57.2406C42.8933 58.3747 44.732 58.3747 45.8661 57.2406L50.9998 52.107L56.1333 57.2406C57.2674 58.3746 59.1061 58.3746 60.2402 57.2406C61.3743 56.1065 61.3743 54.2678 60.2402 53.1337L55.1066 48.0001L60.2402 42.8666C61.3743 41.7325 61.3743 39.8938 60.2402 38.7597C59.1061 37.6256 57.2674 37.6256 56.1333 38.7597L50.9998 43.8932L45.8661 38.7596C44.732 37.6255 42.8933 37.6255 41.7593 38.7596Z" fill="white"/>
</g>
<defs>
<filter id="filter0_d_48_5261" x="-13" y="0" width="128" height="128" filterUnits="userSpaceOnUse" color-interpolation-filters="sRGB">
<feFlood flood-opacity="0" result="BackgroundImageFix"/>
<feColorMatrix in="SourceAlpha" type="matrix" values="0 0 0 0 0 0 0 0 0 0 0 0 0 0 0 0 0 0 127 0" result="hardAlpha"/>
<feOffset dy="16"/>
<feGaussianBlur stdDeviation="8"/>
<feColorMatrix type="matrix" values="0 0 0 0 0 0 0 0 0 0 0 0 0 0 0 0 0 0 0.02 0"/>
<feBlend mode="normal" in2="BackgroundImageFix" result="effect1_dropShadow_48_5261"/>
<feBlend mode="normal" in="SourceGraphic" in2="effect1_dropShadow_48_5261" result="shape"/>
</filter>
<filter id="filter1_biii_48_5261" x="0.152344" y="-2.84802" width="101.696" height="101.696" filterUnits="userSpaceOnUse" color-interpolation-filters="sRGB">
<feFlood flood-opacity="0" result="BackgroundImageFix"/>
<feGaussianBlur in="BackgroundImageFix" stdDeviation="8"/>
<feComposite in2="SourceAlpha" operator="in" result="effect1_backgroundBlur_48_5261"/>
<feBlend mode="normal" in="SourceGraphic" in2="effect1_backgroundBlur_48_5261" result="shape"/>
<feColorMatrix in="SourceAlpha" type="matrix" values="0 0 0 0 0 0 0 0 0 0 0 0 0 0 0 0 0 0 127 0" result="hardAlpha"/>
<feOffset dy="4.356"/>
<feGaussianBlur stdDeviation="2.178"/>
<feComposite in2="hardAlpha" operator="arithmetic" k2="-1" k3="1"/>
<feColorMatrix type="matrix" values="0 0 0 0 1 0 0 0 0 1 0 0 0 0 1 0 0 0 0.25 0"/>
<feBlend mode="normal" in2="shape" result="effect2_innerShadow_48_5261"/>
<feColorMatrix in="SourceAlpha" type="matrix" values="0 0 0 0 0 0 0 0 0 0 0 0 0 0 0 0 0 0 127 0" result="hardAlpha"/>
<feOffset dy="5.808"/>
<feGaussianBlur stdDeviation="2.904"/>
<feComposite in2="hardAlpha" operator="arithmetic" k2="-1" k3="1"/>
<feColorMatrix type="matrix" values="0 0 0 0 1 0 0 0 0 1 0 0 0 0 1 0 0 0 0.25 0"/>
<feBlend mode="normal" in2="effect2_innerShadow_48_5261" result="effect3_innerShadow_48_5261"/>
<feColorMatrix in="SourceAlpha" type="matrix" values="0 0 0 0 0 0 0 0 0 0 0 0 0 0 0 0 0 0 127 0" result="hardAlpha"/>
<feOffset dy="1.452"/>
<feGaussianBlur stdDeviation="0.726"/>
<feComposite in2="hardAlpha" operator="arithmetic" k2="-1" k3="1"/>
<feColorMatrix type="matrix" values="0 0 0 0 1 0 0 0 0 1 0 0 0 0 1 0 0 0 0.25 0"/>
<feBlend mode="normal" in2="effect3_innerShadow_48_5261" result="effect4_innerShadow_48_5261"/>
</filter>
</defs>
</svg>
