<svg width="96" height="96" viewBox="0 0 96 96" fill="none" xmlns="http://www.w3.org/2000/svg">
<path fill-rule="evenodd" clip-rule="evenodd" d="M42.5586 31.194C42.051 31.5715 41.7517 32.1668 41.7517 32.7993C41.7517 33.6849 42.1706 34.5183 42.8813 35.0467L46.025 37.384C46.5566 37.7792 46.8232 38.438 46.7161 39.0917C46.7084 39.1387 46.7029 39.1859 46.6974 39.2331C46.6918 39.2811 46.6862 39.3291 46.6783 39.3768C46.5807 39.9666 45.9927 41.6458 44.914 43.6577C43.8425 45.6564 42.6096 46.8342 42.236 47.191C42.1962 47.2291 42.1661 47.2578 42.147 47.2772C41.5405 47.7708 40.7085 47.883 39.9929 47.5675L36.2574 45.9206C35.6179 45.6387 34.8749 45.6972 34.2523 46.0149C33.7308 46.281 33.4098 46.8063 33.3384 47.3874L32.7811 51.9231C32.7072 52.5249 32.2952 53.0312 31.721 53.226C31.5711 53.2768 31.4157 53.314 31.2615 53.3509C31.2477 53.3542 31.2339 53.3575 31.2201 53.3608C31.1921 53.3676 31.1621 53.3748 31.1301 53.3826C30.467 53.5431 28.94 53.9129 26.9286 53.9129C24.9171 53.9129 23.3902 53.5431 22.7271 53.3826C22.6947 53.3747 22.6644 53.3674 22.6362 53.3606C22.6224 53.3573 22.6085 53.354 22.5947 53.3507C22.4411 53.3139 22.2863 53.2769 22.1369 53.2262C21.5626 53.0315 21.1513 52.524 21.0795 51.9219L20.5355 47.3554C20.4566 46.6933 20.0299 46.1546 19.4591 45.8098C18.9489 45.5016 18.2964 45.4124 17.7509 45.6529L13.4358 47.5553C12.9832 47.7548 12.4569 47.6839 12.0732 47.3716C11.9964 47.3091 11.9149 47.2481 11.8328 47.1867C11.664 47.0603 11.4924 46.9318 11.3526 46.7835C10.8616 46.2625 9.95522 45.0748 8.9431 43.4566C7.5596 41.0437 7.16432 39.2339 7.16432 39.0328C7.04214 38.0384 7.4633 37.055 8.26733 36.4572L11.2985 34.2035C11.8062 33.8261 12.1054 33.2308 12.1054 32.5982C12.1054 31.9657 11.8062 31.3704 11.2985 30.993L7.83214 28.4157C7.30056 28.0205 7.03393 27.3617 7.14102 26.708C7.1454 26.6813 7.14938 26.6544 7.15336 26.6276C7.16344 26.5596 7.17352 26.4916 7.19023 26.4248C7.31608 25.922 7.90037 24.288 8.9431 22.3431C10.3266 19.9301 11.5125 18.7236 11.7101 18.5226C12.3166 18.0289 13.1486 17.9168 13.8642 18.2322L17.7509 19.9458C18.2964 20.1863 18.9489 20.0971 19.4591 19.7888C20.0299 19.444 20.4566 18.9053 20.5355 18.2432L21.0795 13.6768C21.1513 13.0746 21.5626 12.5672 22.1369 12.3724C22.2862 12.3218 22.441 12.2847 22.5946 12.248C22.6085 12.2447 22.6223 12.2413 22.6362 12.238C22.6644 12.2312 22.6947 12.2239 22.7271 12.2161C23.3902 12.0555 24.9171 11.6858 26.9286 11.6858C28.94 11.6858 30.467 12.0555 31.1301 12.2161C31.1624 12.2239 31.1927 12.2312 31.2209 12.238C31.2348 12.2413 31.2487 12.2447 31.2625 12.248C31.4161 12.2847 31.5709 12.3218 31.7202 12.3724C32.2945 12.5672 32.7059 13.0746 32.7776 13.6768L33.3217 18.2432C33.4005 18.9053 33.8273 19.444 34.398 19.7888C34.9082 20.0971 35.5608 20.1863 36.1062 19.9458L39.9929 18.2322C40.7085 17.9168 41.5405 18.0289 42.147 18.5226C42.1666 18.5425 42.196 18.5704 42.2343 18.6068C42.582 18.937 43.6678 19.9685 44.914 22.142C46.2975 24.555 46.6928 26.3647 46.6928 26.5658C46.8147 27.4336 46.453 28.2986 45.7498 28.8214L42.5586 31.194ZM26.9945 37.923C29.5755 37.923 31.6678 35.8307 31.6678 33.2497C31.6678 30.6687 29.5755 28.5763 26.9945 28.5763C24.4135 28.5763 22.3211 30.6687 22.3211 33.2497C22.3211 35.8307 24.4135 37.923 26.9945 37.923Z" fill="#006FFF"/>
<g filter="url(#filter0_biii_711_285)">
<path fill-rule="evenodd" clip-rule="evenodd" d="M82.34 45.3361C81.4242 46.017 80.8845 47.0909 80.8845 48.2321C80.8845 49.8297 81.6401 51.3332 82.9222 52.2864L88.5934 56.5028C89.5524 57.2158 90.0334 58.4043 89.8402 59.5836C89.8263 59.6683 89.8164 59.7535 89.8064 59.8387C89.7963 59.9252 89.7862 60.0118 89.7719 60.0979C89.596 61.1619 88.5351 64.1912 86.5892 67.8207C84.6562 71.4263 82.432 73.551 81.7581 74.1948C81.6862 74.2634 81.6319 74.3153 81.5976 74.3502C80.5034 75.2408 79.0024 75.4431 77.7115 74.874L70.9726 71.9029C69.8189 71.3943 68.4785 71.4999 67.3555 72.073C66.4147 72.5532 65.8355 73.5007 65.7067 74.5491L64.7014 82.7316C64.568 83.8172 63.8248 84.7306 62.7889 85.0819C62.5184 85.1736 62.238 85.2408 61.9597 85.3074C61.9349 85.3133 61.9101 85.3193 61.8853 85.3252C61.8348 85.3373 61.7807 85.3504 61.7228 85.3644C60.5266 85.6541 57.772 86.3211 54.1433 86.3211C50.5146 86.3211 47.7601 85.6541 46.5638 85.3645C46.5054 85.3503 46.4507 85.3371 46.3998 85.3249C46.3749 85.3189 46.3499 85.3129 46.3249 85.3069C46.0478 85.2406 45.7685 85.1737 45.4991 85.0824C44.463 84.731 43.721 83.8156 43.5916 82.7293L42.6101 74.4914C42.4678 73.297 41.698 72.3252 40.6684 71.7031C39.748 71.1471 38.5707 70.9861 37.5868 71.42L29.8022 74.8519C28.9857 75.2119 28.0362 75.084 27.3441 74.5207C27.2055 74.4078 27.0586 74.2978 26.9105 74.187C26.6059 73.9589 26.2963 73.7272 26.0442 73.4596C25.1583 72.5197 23.5233 70.3771 21.6974 67.4579C19.2015 63.1049 18.4884 59.8401 18.4884 59.4774C18.268 57.6834 19.0278 55.9093 20.4783 54.8309L25.9466 50.7652C26.8624 50.0844 27.4022 49.0105 27.4022 47.8693C27.4022 46.7282 26.8624 45.6542 25.9466 44.9734L19.6932 40.3241C18.7342 39.6111 18.2532 38.4226 18.4464 37.2433C18.4543 37.195 18.4615 37.1466 18.4687 37.0983C18.4869 36.9755 18.505 36.8528 18.5352 36.7324C18.7622 35.8253 19.8163 32.8776 21.6974 29.3689C24.1932 25.0159 26.3325 22.8394 26.6891 22.4766C27.7832 21.5861 29.2842 21.3838 30.5751 21.9529L37.5868 25.0442C38.5707 25.478 39.748 25.3171 40.6684 24.761C41.698 24.1389 42.4678 23.1672 42.6101 21.9727L43.5916 13.7348C43.721 12.6485 44.463 11.7331 45.4991 11.3817C45.7685 11.2904 46.0477 11.2236 46.3248 11.1573C46.3498 11.1513 46.3748 11.1453 46.3998 11.1393C46.4507 11.1271 46.5054 11.1138 46.5638 11.0997C47.76 10.81 50.5146 10.1431 54.1433 10.1431C57.772 10.1431 60.5266 10.81 61.7228 11.0997C61.7812 11.1138 61.8359 11.1271 61.8868 11.1393C61.9118 11.1453 61.9368 11.1513 61.9618 11.1573C62.2389 11.2236 62.5181 11.2904 62.7875 11.3817C63.8236 11.7331 64.5656 12.6485 64.6951 13.7348L65.6765 21.9727C65.8188 23.1672 66.5886 24.1389 67.6182 24.761C68.5386 25.3171 69.7159 25.478 70.6999 25.0442L77.7115 21.9529C79.0024 21.3838 80.5034 21.5861 81.5976 22.4766C81.6329 22.5126 81.6859 22.5629 81.755 22.6286C82.3822 23.2244 84.3411 25.0852 86.5892 29.0062C89.0851 33.3592 89.7982 36.624 89.7982 36.9867C90.018 38.5522 89.3656 40.1127 88.097 41.0559L82.34 45.3361ZM54.263 57.4758C58.9192 57.4758 62.6937 53.7012 62.6937 49.045C62.6937 44.3888 58.9192 40.6143 54.263 40.6143C49.6068 40.6143 45.8322 44.3888 45.8322 49.045C45.8322 53.7012 49.6068 57.4758 54.263 57.4758Z" fill="#2E89FF" fill-opacity="0.2"/>
</g>
<defs>
<filter id="filter0_biii_711_285" x="2.4043" y="-5.85693" width="103.478" height="108.178" filterUnits="userSpaceOnUse" color-interpolation-filters="sRGB">
<feFlood flood-opacity="0" result="BackgroundImageFix"/>
<feGaussianBlur in="BackgroundImageFix" stdDeviation="8"/>
<feComposite in2="SourceAlpha" operator="in" result="effect1_backgroundBlur_711_285"/>
<feBlend mode="normal" in="SourceGraphic" in2="effect1_backgroundBlur_711_285" result="shape"/>
<feColorMatrix in="SourceAlpha" type="matrix" values="0 0 0 0 0 0 0 0 0 0 0 0 0 0 0 0 0 0 127 0" result="hardAlpha"/>
<feOffset dx="4.356" dy="4.356"/>
<feGaussianBlur stdDeviation="2.178"/>
<feComposite in2="hardAlpha" operator="arithmetic" k2="-1" k3="1"/>
<feColorMatrix type="matrix" values="0 0 0 0 1 0 0 0 0 1 0 0 0 0 1 0 0 0 0.3 0"/>
<feBlend mode="normal" in2="shape" result="effect2_innerShadow_711_285"/>
<feColorMatrix in="SourceAlpha" type="matrix" values="0 0 0 0 0 0 0 0 0 0 0 0 0 0 0 0 0 0 127 0" result="hardAlpha"/>
<feOffset dx="5.808" dy="5.808"/>
<feGaussianBlur stdDeviation="2.904"/>
<feComposite in2="hardAlpha" operator="arithmetic" k2="-1" k3="1"/>
<feColorMatrix type="matrix" values="0 0 0 0 1 0 0 0 0 1 0 0 0 0 1 0 0 0 0.25 0"/>
<feBlend mode="normal" in2="effect2_innerShadow_711_285" result="effect3_innerShadow_711_285"/>
<feColorMatrix in="SourceAlpha" type="matrix" values="0 0 0 0 0 0 0 0 0 0 0 0 0 0 0 0 0 0 127 0" result="hardAlpha"/>
<feOffset dx="1.452" dy="1.452"/>
<feGaussianBlur stdDeviation="0.726"/>
<feComposite in2="hardAlpha" operator="arithmetic" k2="-1" k3="1"/>
<feColorMatrix type="matrix" values="0 0 0 0 1 0 0 0 0 1 0 0 0 0 1 0 0 0 0.35 0"/>
<feBlend mode="normal" in2="effect3_innerShadow_711_285" result="effect4_innerShadow_711_285"/>
</filter>
</defs>
</svg>
