<svg width="204" height="204" viewBox="0 0 204 204" fill="none" xmlns="http://www.w3.org/2000/svg">
<g filter="url(#filter0_bd_235_1833)">
<rect x="50" y="50" width="96" height="96" rx="48" fill="url(#paint0_linear_235_1833)" fill-opacity="0.5"/>
<rect x="50.5" y="50.5" width="95" height="95" rx="47.5" stroke="url(#paint1_linear_235_1833)"/>
</g>
<g filter="url(#filter1_b_235_1833)">
<ellipse cx="98.5929" cy="97.0249" rx="26.0221" ry="26.0315" fill="url(#paint2_linear_235_1833)"/>
<path d="M124.473 97.0249C124.473 111.323 112.886 122.914 98.5929 122.914C84.3 122.914 72.7132 111.323 72.7132 97.0249C72.7132 82.7267 84.3 71.1358 98.5929 71.1358C112.886 71.1358 124.473 82.7267 124.473 97.0249Z" stroke="url(#paint3_linear_235_1833)" stroke-opacity="0.5" stroke-width="0.284762"/>
</g>
<g filter="url(#filter2_d_235_1833)">
<path d="M97.6039 69.4158C82.0623 69.4158 69.4155 82.0671 69.4155 97.6144C69.4155 113.162 82.0623 125.82 97.6039 125.82C113.146 125.82 125.792 113.168 125.792 97.6209C125.792 82.0736 113.146 69.4158 97.6039 69.4158ZM109.75 92.2389L95.6523 107.422C95.0147 108.112 94.143 108.463 93.2647 108.463C92.5101 108.463 91.762 108.203 91.144 107.682L83.552 101.174C82.1859 100.003 82.0297 97.9528 83.2007 96.5862C84.3717 95.2195 86.4209 95.0568 87.7871 96.2347L93.0045 100.706L104.975 87.8135C106.198 86.4989 108.253 86.4209 109.574 87.6443C110.895 88.8678 110.966 90.9243 109.75 92.2389Z" fill="url(#paint4_linear_235_1833)"/>
</g>
<defs>
<filter id="filter0_bd_235_1833" x="0" y="0" width="204" height="204" filterUnits="userSpaceOnUse" color-interpolation-filters="sRGB">
<feFlood flood-opacity="0" result="BackgroundImageFix"/>
<feGaussianBlur in="BackgroundImageFix" stdDeviation="6"/>
<feComposite in2="SourceAlpha" operator="in" result="effect1_backgroundBlur_235_1833"/>
<feColorMatrix in="SourceAlpha" type="matrix" values="0 0 0 0 0 0 0 0 0 0 0 0 0 0 0 0 0 0 127 0" result="hardAlpha"/>
<feOffset dx="4" dy="4"/>
<feGaussianBlur stdDeviation="27"/>
<feColorMatrix type="matrix" values="0 0 0 0 0.00392157 0 0 0 0 0.152941 0 0 0 0 0.345098 0 0 0 0.05 0"/>
<feBlend mode="normal" in2="effect1_backgroundBlur_235_1833" result="effect2_dropShadow_235_1833"/>
<feBlend mode="normal" in="SourceGraphic" in2="effect2_dropShadow_235_1833" result="shape"/>
</filter>
<filter id="filter1_b_235_1833" x="51.2137" y="49.6363" width="94.7582" height="94.7773" filterUnits="userSpaceOnUse" color-interpolation-filters="sRGB">
<feFlood flood-opacity="0" result="BackgroundImageFix"/>
<feGaussianBlur in="BackgroundImageFix" stdDeviation="10.6786"/>
<feComposite in2="SourceAlpha" operator="in" result="effect1_backgroundBlur_235_1833"/>
<feBlend mode="normal" in="SourceGraphic" in2="effect1_backgroundBlur_235_1833" result="shape"/>
</filter>
<filter id="filter2_d_235_1833" x="58.629" y="45.6854" width="90.8938" height="90.9207" filterUnits="userSpaceOnUse" color-interpolation-filters="sRGB">
<feFlood flood-opacity="0" result="BackgroundImageFix"/>
<feColorMatrix in="SourceAlpha" type="matrix" values="0 0 0 0 0 0 0 0 0 0 0 0 0 0 0 0 0 0 127 0" result="hardAlpha"/>
<feOffset dx="6.47191" dy="-6.47191"/>
<feGaussianBlur stdDeviation="8.62921"/>
<feColorMatrix type="matrix" values="0 0 0 0 0.698039 0 0 0 0 0.968627 0 0 0 0 0.388235 0 0 0 0.2 0"/>
<feBlend mode="normal" in2="BackgroundImageFix" result="effect1_dropShadow_235_1833"/>
<feBlend mode="normal" in="SourceGraphic" in2="effect1_dropShadow_235_1833" result="shape"/>
</filter>
<linearGradient id="paint0_linear_235_1833" x1="98" y1="50" x2="98" y2="146" gradientUnits="userSpaceOnUse">
<stop stop-color="#F9FAFB"/>
<stop offset="1" stop-color="#E5EAEF"/>
</linearGradient>
<linearGradient id="paint1_linear_235_1833" x1="98" y1="50" x2="98" y2="146" gradientUnits="userSpaceOnUse">
<stop stop-color="#F2F2F2"/>
<stop offset="0.414226" stop-color="#818181"/>
<stop offset="1" stop-color="white"/>
</linearGradient>
<linearGradient id="paint2_linear_235_1833" x1="120.925" y1="80.395" x2="56.0695" y2="71.4304" gradientUnits="userSpaceOnUse">
<stop stop-color="white"/>
<stop offset="1" stop-color="white" stop-opacity="0.61"/>
</linearGradient>
<linearGradient id="paint3_linear_235_1833" x1="78.1771" y1="88.458" x2="122.37" y2="88.7019" gradientUnits="userSpaceOnUse">
<stop stop-color="white"/>
<stop offset="1" stop-color="white" stop-opacity="0"/>
</linearGradient>
<linearGradient id="paint4_linear_235_1833" x1="125.792" y1="69.4158" x2="86.0195" y2="115.91" gradientUnits="userSpaceOnUse">
<stop stop-color="#B2F763"/>
<stop offset="1" stop-color="#26AB3F"/>
</linearGradient>
</defs>
</svg>
