<svg width="96" height="96" viewBox="0 0 96 96" fill="none" xmlns="http://www.w3.org/2000/svg">
<path d="M59.6161 13.152H66.8761C73.2914 13.152 78.4921 18.3526 78.4921 24.768V71.232C78.4921 77.6473 73.2914 82.848 66.8761 82.848H59.6161V13.152Z" fill="#006FFF"/>
<g filter="url(#filter0_biii_711_261)">
<path d="M17.5077 24.768C17.5077 18.3526 22.7084 13.152 29.1237 13.152H58.1637C64.579 13.152 69.7797 18.3526 69.7797 24.768V71.232C69.7797 77.6473 64.579 82.848 58.1637 82.848H29.1237C22.7084 82.848 17.5077 77.6473 17.5077 71.232V24.768Z" fill="#2E89FF" fill-opacity="0.2"/>
</g>
<path d="M49.4519 40.74C49.4519 43.9477 46.8516 46.548 43.6439 46.548C40.4363 46.548 37.8359 43.9477 37.8359 40.74C37.8359 37.5323 40.4363 34.932 43.6439 34.932C46.8516 34.932 49.4519 37.5323 49.4519 40.74Z" fill="white"/>
<path d="M43.6439 49.452C39.2467 49.452 35.4202 51.8953 33.4478 55.4983C31.9076 58.312 34.6283 61.068 37.8359 61.068H49.4519C52.6596 61.068 55.3803 58.312 53.84 55.4983C51.8677 51.8953 48.0411 49.452 43.6439 49.452Z" fill="white"/>
<defs>
<filter id="filter0_biii_711_261" x="1.50769" y="-2.84802" width="84.272" height="101.696" filterUnits="userSpaceOnUse" color-interpolation-filters="sRGB">
<feFlood flood-opacity="0" result="BackgroundImageFix"/>
<feGaussianBlur in="BackgroundImageFix" stdDeviation="8"/>
<feComposite in2="SourceAlpha" operator="in" result="effect1_backgroundBlur_711_261"/>
<feBlend mode="normal" in="SourceGraphic" in2="effect1_backgroundBlur_711_261" result="shape"/>
<feColorMatrix in="SourceAlpha" type="matrix" values="0 0 0 0 0 0 0 0 0 0 0 0 0 0 0 0 0 0 127 0" result="hardAlpha"/>
<feOffset dx="-4.356" dy="4.356"/>
<feGaussianBlur stdDeviation="2.178"/>
<feComposite in2="hardAlpha" operator="arithmetic" k2="-1" k3="1"/>
<feColorMatrix type="matrix" values="0 0 0 0 1 0 0 0 0 1 0 0 0 0 1 0 0 0 0.25 0"/>
<feBlend mode="normal" in2="shape" result="effect2_innerShadow_711_261"/>
<feColorMatrix in="SourceAlpha" type="matrix" values="0 0 0 0 0 0 0 0 0 0 0 0 0 0 0 0 0 0 127 0" result="hardAlpha"/>
<feOffset dx="-5.808"/>
<feGaussianBlur stdDeviation="2.904"/>
<feComposite in2="hardAlpha" operator="arithmetic" k2="-1" k3="1"/>
<feColorMatrix type="matrix" values="0 0 0 0 1 0 0 0 0 1 0 0 0 0 1 0 0 0 0.25 0"/>
<feBlend mode="normal" in2="effect2_innerShadow_711_261" result="effect3_innerShadow_711_261"/>
<feColorMatrix in="SourceAlpha" type="matrix" values="0 0 0 0 0 0 0 0 0 0 0 0 0 0 0 0 0 0 127 0" result="hardAlpha"/>
<feOffset dx="-1.452"/>
<feGaussianBlur stdDeviation="0.726"/>
<feComposite in2="hardAlpha" operator="arithmetic" k2="-1" k3="1"/>
<feColorMatrix type="matrix" values="0 0 0 0 1 0 0 0 0 1 0 0 0 0 1 0 0 0 0.25 0"/>
<feBlend mode="normal" in2="effect3_innerShadow_711_261" result="effect4_innerShadow_711_261"/>
</filter>
</defs>
</svg>
