<svg width="96" height="96" viewBox="0 0 96 96" fill="none" xmlns="http://www.w3.org/2000/svg">
<rect x="27.6719" y="56.5948" width="40.656" height="26.136" rx="5.808" fill="#006FFF"/>
<g filter="url(#filter0_biii_711_228)">
<path d="M37.8371 19.7775C42.2584 11.7906 53.7412 11.7906 58.1626 19.7775L83.4672 65.4892C87.7531 73.2313 82.1537 82.731 73.3045 82.731H22.6952C13.8459 82.731 8.24657 73.2313 12.5324 65.4892L37.8371 19.7775Z" fill="#2E89FF" fill-opacity="0.2"/>
</g>
<path d="M45.0962 62.4029C45.0962 60.7991 46.3964 59.4989 48.0002 59.4989C49.604 59.4989 50.9042 60.7991 50.9042 62.4029C50.9042 64.0067 49.604 65.3069 48.0002 65.3069C46.3964 65.3069 45.0962 64.0067 45.0962 62.4029Z" fill="white"/>
<path d="M45.0962 42.0749C45.0962 40.4711 46.3964 39.1709 48.0002 39.1709C49.604 39.1709 50.9042 40.4711 50.9042 42.0749V53.6909C50.9042 55.2947 49.604 56.5949 48.0002 56.5949C46.3964 56.5949 45.0962 55.2947 45.0962 53.6909V42.0749Z" fill="white"/>
<defs>
<filter id="filter0_biii_711_228" x="-4.9375" y="-2.21265" width="105.875" height="100.944" filterUnits="userSpaceOnUse" color-interpolation-filters="sRGB">
<feFlood flood-opacity="0" result="BackgroundImageFix"/>
<feGaussianBlur in="BackgroundImageFix" stdDeviation="8"/>
<feComposite in2="SourceAlpha" operator="in" result="effect1_backgroundBlur_711_228"/>
<feBlend mode="normal" in="SourceGraphic" in2="effect1_backgroundBlur_711_228" result="shape"/>
<feColorMatrix in="SourceAlpha" type="matrix" values="0 0 0 0 0 0 0 0 0 0 0 0 0 0 0 0 0 0 127 0" result="hardAlpha"/>
<feOffset dy="4.356"/>
<feGaussianBlur stdDeviation="2.178"/>
<feComposite in2="hardAlpha" operator="arithmetic" k2="-1" k3="1"/>
<feColorMatrix type="matrix" values="0 0 0 0 1 0 0 0 0 1 0 0 0 0 1 0 0 0 0.3 0"/>
<feBlend mode="normal" in2="shape" result="effect2_innerShadow_711_228"/>
<feColorMatrix in="SourceAlpha" type="matrix" values="0 0 0 0 0 0 0 0 0 0 0 0 0 0 0 0 0 0 127 0" result="hardAlpha"/>
<feOffset dy="5.808"/>
<feGaussianBlur stdDeviation="2.904"/>
<feComposite in2="hardAlpha" operator="arithmetic" k2="-1" k3="1"/>
<feColorMatrix type="matrix" values="0 0 0 0 1 0 0 0 0 1 0 0 0 0 1 0 0 0 0.25 0"/>
<feBlend mode="normal" in2="effect2_innerShadow_711_228" result="effect3_innerShadow_711_228"/>
<feColorMatrix in="SourceAlpha" type="matrix" values="0 0 0 0 0 0 0 0 0 0 0 0 0 0 0 0 0 0 127 0" result="hardAlpha"/>
<feOffset dy="1.452"/>
<feGaussianBlur stdDeviation="0.726"/>
<feComposite in2="hardAlpha" operator="arithmetic" k2="-1" k3="1"/>
<feColorMatrix type="matrix" values="0 0 0 0 1 0 0 0 0 1 0 0 0 0 1 0 0 0 0.35 0"/>
<feBlend mode="normal" in2="effect3_innerShadow_711_228" result="effect4_innerShadow_711_228"/>
</filter>
</defs>
</svg>
