<svg width="298" height="60" viewBox="0 0 298 60" fill="none" xmlns="http://www.w3.org/2000/svg">
<path d="M7.22 36.0651V59.0651H0V1.92508H7.22V7.88507C9.25 4.44507 14.16 0.945068 21.45 0.945068C32.81 0.945068 41.29 9.99507 41.29 21.9751C41.29 33.9551 32.81 43.0051 21.45 43.0051C14.16 43.0051 9.25 39.4951 7.22 36.0651ZM34.22 21.9751C34.22 13.6351 28.89 7.32507 20.83 7.32507C12.77 7.32507 7.09 13.6351 7.09 21.9751C7.09 30.3151 12.7 36.6251 20.83 36.6251C28.96 36.6251 34.22 30.3151 34.22 21.9751Z" fill="#002758"/>
<path d="M54.97 1.91504V8.08505C56.72 5.07505 61.56 0.935059 69.41 0.935059C71.86 0.935059 73.48 1.14504 74.88 1.63504V8.50507C73.34 7.80507 71.37 7.38504 68.92 7.38504C60.72 7.38504 54.97 13.975 54.97 21.265V42.015H47.75V1.91504H54.97Z" fill="#002758"/>
<path d="M116.04 21.9751C116.04 34.0351 107.42 43.0051 95.5698 43.0051C83.7198 43.0051 75.0298 34.0351 75.0298 21.9751C75.0298 9.91507 83.6498 0.945068 95.5698 0.945068C107.49 0.945068 116.04 9.91507 116.04 21.9751ZM82.1098 21.9751C82.1098 30.3151 87.5798 36.6251 95.5698 36.6251C103.56 36.6251 108.96 30.3151 108.96 21.9751C108.96 13.6351 103.49 7.32507 95.5698 7.32507C87.6498 7.32507 82.1098 13.6351 82.1098 21.9751Z" fill="#002758"/>
<path d="M141 43.0051C129.08 43.0051 120.39 34.0351 120.39 21.9751C120.39 9.91507 129.01 0.945068 140.86 0.945068C150.32 0.945068 157.76 7.04507 159.72 15.3851H152.36C150.75 10.6151 146.54 7.32507 140.86 7.32507C132.87 7.32507 127.47 13.6351 127.47 21.9751C127.47 30.3151 132.87 36.6251 140.86 36.6251C146.54 36.6251 150.89 33.2551 152.5 28.4251H159.86C157.69 37.1151 150.32 43.0051 141 43.0051Z" fill="#002758"/>
<path d="M204.8 21.9751C204.8 34.0351 196.18 43.0051 184.33 43.0051C172.48 43.0051 163.79 34.0351 163.79 21.9751C163.79 9.91507 172.41 0.945068 184.33 0.945068C196.25 0.945068 204.8 9.91507 204.8 21.9751ZM170.87 21.9751C170.87 30.3151 176.34 36.6251 184.33 36.6251C192.32 36.6251 197.72 30.3151 197.72 21.9751C197.72 13.6351 192.25 7.32507 184.33 7.32507C176.41 7.32507 170.87 13.6351 170.87 21.9751Z" fill="#002758"/>
<path d="M218.48 36.0651V59.0651H211.26V1.92508H218.48V7.88507C220.51 4.44507 225.42 0.945068 232.71 0.945068C244.07 0.945068 252.55 9.99507 252.55 21.9751C252.55 33.9551 244.07 43.0051 232.71 43.0051C225.42 43.0051 220.51 39.4951 218.48 36.0651ZM245.47 21.9751C245.47 13.6351 240.14 7.32507 232.08 7.32507C224.02 7.32507 218.34 13.6351 218.34 21.9751C218.34 30.3151 223.95 36.6251 232.08 36.6251C240.21 36.6251 245.47 30.3151 245.47 21.9751Z" fill="#002758"/>
<path d="M256.9 21.9751C256.9 9.91507 265.31 0.945068 277.02 0.945068C288.73 0.945068 297.07 9.91507 297.07 21.9751C297.07 22.8851 297.07 23.9351 296.93 24.9251H264.12C264.89 31.7951 269.87 36.9151 277.02 36.9151C282.49 36.9151 286.77 34.3951 288.24 31.0951H295.6C293.43 38.0351 286.2 43.0151 277.02 43.0151C265.31 43.0151 256.9 34.0451 256.9 21.9851V21.9751ZM277.02 7.0351C269.8 7.0351 264.89 12.0851 264.12 19.0251H289.99C289.15 12.0151 284.24 7.0351 277.02 7.0351Z" fill="#002758"/>
</svg>
